<?xml version="1.0" encoding="utf-8"?>
<!-- Generator: Adobe Illustrator 18.0.0, SVG Export Plug-In . SVG Version: 6.00 Build 0)  -->
<!DOCTYPE svg PUBLIC "-//W3C//DTD SVG 1.1//EN" "http://www.w3.org/Graphics/SVG/1.1/DTD/svg11.dtd">
<svg version="1.1" id="Layer_1" xmlns="http://www.w3.org/2000/svg" xmlns:xlink="http://www.w3.org/1999/xlink" x="0px" y="0px"
	 viewBox="0 0 1000 300" enable-background="new 0 0 1000 300" xml:space="preserve">
<g>
	<path fill="#FFFFFF" d="M569.5,255.1c-2.6-0.1-5.3-0.2-7.9,0.5c-1,0.8-2.2,0.9-3.3,0.9c-9,0.2-18.1,0.5-27.1,1.1
		c-1,0.1-2.2,0.2-3.1-0.6c-6,0-12,0-18,0.1c-15,0.3-30,0-45-0.2c-1,0-1.9,0.1-2.9,0.1c-7.3-0.2-14.5,0.7-21.8-0.2
		c-3.6-0.5-7.3,0-10.9-0.4c-4.2-1-8.5-0.6-12.8-1c-13.9-1.2-27.8-2.3-41.6-3.8c-15.9-1.7-31.9-3.7-47.7-6.2
		c-7.5-1.2-15-2.4-22.5-3.5c-4.5-0.6-5.1-1.2-4.1-5.6c0.8-3.6,0.5-7.5,2.6-10.8c1.3-0.7,2.7-0.5,4.1-0.5c7.4,0,14.8,0,22.3,0
		c12.9,0,25.8,0,38.7,0c1.5,0,3-0.1,4.5,0.2c1.6,0.6,3.2,0.5,4.8,0.5c11.9,0,23.8,0,35.8,0c1.6,0,3.2-0.1,4.8,0.2
		c1.5,0.5,3,0.4,4.5,0.4c46.8,0,93.6,0,140.4,0c1.5,0,3,0.1,4.5-0.4c5.1-0.4,10.3-0.2,15.4-0.2c13.1,0,26.2,0,39.3,0
		c1.6,0,3.2,0.1,4.8-0.4c10.7-0.5,21.5-0.1,32.2-0.2c8.1,0,16.3,0,24.4,0c1.7,0,3.5-0.1,4.5,1.8c0.9,3.9,1.3,7.8,2.1,11.7
		c0.3,1.6-0.2,2.6-2,2.9c-11,1.8-21.9,3.7-32.9,5.2c-9.2,1.3-18.4,2.5-27.6,3.6c-6.9,0.8-13.8,1.5-20.7,2.2
		c-8.5,0.9-17.1,1.5-25.6,2.3C577.4,255.2,573.5,255.3,569.5,255.1z"/>
	<path fill="#4789BD" d="M353.5,86.2c4.9-2.6,9.4-5.8,14.6-7.9c1.4-0.6,2.7-1.3,4.3-1c0.4,1.7-0.2,3.3-0.1,5
		c0.1,1.2-0.7,1.7-1.9,1.4c-1.7-0.3-2.6,1.2-3.8,1.8c-2.1,1.1-3.1,2.7-4.5,4.3c-0.9,1.1-2.9,0.3-4.3,0c-0.7-0.1-1.5-0.4-2.1,0.2
		c-0.2,0.2-0.2,0.6-0.1,0.9c0.5,0.9,1.4,1,2.2,0.8c2.2-0.5,4.5-0.6,6-2.7c0.9-1.2,2.2-1.9,3.6-0.7c0.8,0.6,1.4,0.4,2-0.1
		c2.6-2.1,5.2-1.6,7.7,0.3c1.5,1.1,3,2.2,3.5-0.9c0.1-0.4-0.2-0.2,0.1-0.3c2.9-0.9,2.9-4.5,5.4-5.7c0.3-0.2,0.5-0.3,0.8-0.4
		c0.8,0,1.5,0,1.7-1c1-3.5,3.5-4.6,6.9-4.3c2.3,0.2,2.3,0,2.5-2.7c-4,1.4-8.1,2.3-12.1,3.6c-3,0.9-5.5,2.9-8.6,3.5
		c-1.1,0.2-0.7,1.6-0.7,2.5c0,1,0,2.1-1.1,2.4c-1.3,0.4-1.9-0.7-2.5-1.6c-1.3-2-0.4-4.3-0.8-6.5c2-1.7,4.4-2.6,6.9-3.3
		c10.1-2.8,20.3-5.3,31-4.5c3.9,0.3,5.2-0.8,6.3-4.5c0.2-0.8,0.4-1.7,0.6-2.5c3.1-1.2,3.7-0.8,5.9,4.3c0.8-3.4,3.1-4.7,5.8-5.8
		c1.6-0.6,2.8-1.4,4,0.6c0.8,1.4,1.6,0.3,2.1-0.5c0.9-1.3,1.4-3.5,3.1-3.2c2,0.4,2.4,2.7,2.7,4.7c0,0.4-0.1,0.8-0.5,1
		c0.2-0.1,0.4-0.2,0.5-0.5c0.2-0.5,0.4-1,0.6-1.5c3-6.1,5.8-12.4,9.3-18.3c1.8-3.1,4.9-5.1,7.1-7.8c0.1-0.2,0.3-0.3,0.4-0.4
		c-0.4,0-0.5,0.4-0.7,0.6c-3.8,3.3-6.8,7.3-10.3,10.9c-0.7,0.7-1.3,1.7-2.4,1c-1-0.6-1.4-1.5-0.8-2.7c7.3-8.5,16-14.9,26.5-19
		c2.4-0.9,4.8-2,7.1-3c0.6-0.2,0.8,0.1,0.9,0.7c-0.7,1.6-2.2,2.3-3.6,2.9c-2.3,1-3.1,2.5-2.5,4.9c-0.8,2.2-2.6,3.6-4.4,4.9
		c-1.6,1.3-3.2,2.5-4.1,4.4c-2.6,4.5-5.7,8.8-7.1,13.9c-1.4,2.9-3.1,5.5-4.6,8.3c-0.4,0.6-0.6,1.3-1.1,1.8c0.5-0.4,0.7-1,1-1.4
		c1.6-3,3.6-5.8,5-9c2.7-3.7,5-7.7,7.3-11.6c4.5-5.2,9.2-10.1,14.8-14.2c1-0.8,1.9-1.7,3.2-2.1c0.8-0.1,1.6-0.1,2,0.8
		c-0.3,1.6-1.6,2.3-2.6,3.3c-6.2,4.9-11,10.9-14.5,17.9c-3,6.1-7.1,11.5-10.3,17.4c-0.5,0.7-0.9,1.6-1.4,2.3c-0.9,1.2-2.2,2-3.2,3.1
		c-1,1.1-2.3,0.9-3.8,0.9c-4.1-0.2-7.8-2.6-12-2.2c-1.6,0.1-1.9-1-2.5-2.1c-0.4-0.7-0.9-1.3-1.8-0.6c-0.7,0.6-0.5,1.4,0,2
		c0.4,0.5,1,0.8,1.6,1c4,1.8,7.8,4,11.7,6.2c2.4,1.3,4.1,2.6,1.8,5.4c1.4,0.7,2.8,0.9,3.8,1.7c1.5,1.3,3,2.6,1.2,4.8
		c-1.1,1.3-0.1,2.1,1.2,3.1c-0.1-1.1-0.6-1.9-0.3-2.8c0.4-1,1.5-2.1,2-1.6c1.6,1.8,4.4,1.3,5.8,3.1c0.6,0.7,0.4,1.4,1.4,0.3
		c1.7-1.7,3.4-0.5,4.8,0.7c1.4,1.2,3.4,2.3,1.9,4.7c-1.4,2.3,0,3.1,1.9,3.6c3.7,1,3.9,1.3,2.4,4.8c-0.4,1-0.5,1.8,0.2,3
		c-0.1-1.7,0.1-3.1,1.2-4.1c1.2-1,2.3-1.4,3.8-0.4c0.9,0.6,0.8-0.6,1.2-1c1.5-1.6,2.8-1.3,3.5,0.8c0.3,0.7,0.3,1.5,0.5,2.2
		c0.1,0.5,0.2,1.4,0.5,1.5c2.7,0.3,4.2,2.4,6.2,3.7c1.1,0.7,2.5,0.9,3.2,2.3c0.3,0.7,0.9,1.2,1.6,1.5c1.5,0.7,3.2,1.5,2.6,3.5
		c-0.5,1.9-2.4,1.9-4.1,1.9c-0.2,0.1-0.1,0.1,0.2,0.2c4.8,3.7,9,2.8,12.7-1.7c0.6-0.7,1.6-1.2,2.6-0.6c1.2,0.7,1.1,1.9,0.6,2.8
		c-0.8,1.4,0.7,3.7-1.7,4.4c-12.8,0.3-25.7,0.2-38.5,0.1c-1.3-0.2-2.5-0.6-3.7-0.9c-1.4-0.4-2.1-1.4-2.3-2.8
		c-0.2-2.4-1.8-3.5-3.8-4.7c-3.2-1.8-6.6-3-10-4.3c-1.3-0.5-2.6-1.2-4-1c-2.6,0.3-4.4-0.8-5.4-3.1c-1.1-2.4,0.6-4,2.1-5.7
		c-1.9,0.7-1.9,0.7-2.2,2.6c-0.3,2.1-0.5,4.1-3.2,4.5c-1,0.1-1.2,1.1-1.4,2c-0.2,0.6-0.2,1.4-1,1.5c-0.9,0-1.1-0.9-1.4-1.6
		c-0.3-0.7-0.4-1.5-0.6-2.2c-0.4-1.3-1.3-2.2-2.4-2.9c-2.1-1.2-3-0.7-3,1.8c0,1.6,0,3.2-2.1,3.3c-1.3,0.1-0.6,0.8-0.5,1.3
		c0.2,0.7,0.7,1.3,1.1,2c1.2,1.9,0.5,3.3-1.5,3.5c-3.6,0.4-6.5,2.2-9.2,4.3c-1.5,1.1-3.2,1.7-5,2.1c-2.4,0.4-4.8,0.6-7.3-0.3
		c0.1-1.4,1.2-1.7,1.8-2.3c0.9-0.8,1.9-1.2,0.5-2.9c-1.9-2.3,1.2-6.8,5.3-7.6c-3.7-3.5-6.6-7.4-8.7-11.9c1.5,2.1,0.8,4.1,0.2,6.2
		c-0.7,2.4-1.7,4.6-2.4,7c-0.6,2.1-1.2,4.1-3.1,5.4c-1.6,1.5-3.5,1.1-5.3,0.6c-0.2,1.7,0.9,1.3,1.7,1.5c2.1,0.5,2.4,1.5,1,3.1
		c-1.4,1.6-8.1,2.2-9.7,0.9c-1-0.9-1-2.1-0.8-3.2c0.5-1.8,2-3,2.5-4.8c-0.9,0.8-2,0.9-3,0.9c-1.5,0-2.3,0.6-3.1,2.1
		c-1.5,2.7-4.7,2.9-7.3,3.4c-2,0.4-4.3,0.2-6.4,0.1c-2.4,0-3.3-1.7-2.3-4c0.1-0.2,0.3-0.4,0.3-0.6c-0.4-4.1,2-6,5.2-7.9
		c1.8-1.1,2.5-3.7,2.8-6c0.3-2.5-0.8-4.4-2.8-5.8c-1.9-1.3-3.7-0.7-5.3,0.6c-2.8,3.1-2.8,3.8,0.4,7.9c0.7,0.8,1.8,1.6,0.9,2.7
		c-0.8,1.1-2,0.6-3,0.3c-5.4-1.8-6-4.2-4.6-7.8c0.6-1.5,0.9-3.1,1.6-4.6c0.6-1.3,0.3-2-1.3-1.9c-3.1,0.3-6.2-0.4-9.3-0.8
		c-0.3-0.1-0.6-0.2-0.9-0.4c-0.9-1.2-0.5-2.3,0.6-3C350.4,90,351.8,87.9,353.5,86.2z"/>
	<path fill="#72211E" d="M595.3,42.9c2.4-1.4,4.9-1.3,7.4-0.3c-0.1,1.4-2,0.7-2.3,2.4c2.5,0,4.9,0,7.3,0c-1.9,2.2-4.6,2.7-8,1.3
		c-0.1-0.2-0.2-0.3-0.3-0.5c-0.2-0.4-0.6-0.4-1-0.6c0.2,0.2,0.4,0.1,0.6,0.2c0.2,0.1,0.3,0.2,0.4,0.4c-0.7,1.7-2.5,1.5-3.8,2
		c-5.5,1.8-14.2,6.4-18.7,10.4c5.6-1.8,11.2-3.6,16.6-6c3.8-1.7,7.6-3.5,11.5-5c1.5-0.6,2.9-1.5,4.6-0.9c0.2,1.2-0.6,1.7-1.6,2
		c-1.7,0.4-3.2,1.1-4.8,1.9c-0.6,0.3-1.3,0.6-1.1,1.3c0.2,0.8,1.1,0.5,1.6,0.6c0.1,1.7-1.4,1.9-2.4,2.4c-3.2,1.6-6.7,2.7-10.1,3.8
		c-1,0.3-2.1,0.4-2.4,1.8c-1,0.7-2.1,0.7-3.1,0.2c-3.4-1.5-6-0.2-8.4,2.1c-0.8,0.8-1.7,1.5-3,2.4c1.7,0.4,3.4-0.3,4.4,1.1
		c0.6,0.8,1.1,0.2,1.6-0.1c0.9-0.6,1.7-1.4,2.6-1.9c2.1-1.1,3.8-0.3,3.1,1.9c-0.8,2.8,0.9,4.4,2.1,6.3c-0.2,1.8-1.8,2.3-3.1,2.9
		c-2.2,1-4.1,2.7-6.6,3c-1.1-1.6-2.2-2.4-4.1-1c-0.8,0.6-2.1,1.1-2.9,0.2c-0.8-1,0.1-2,0.5-2.9c0.4-0.7,1.3-1.1,1.7-2
		c-1.6-0.1-2.5,0.9-3.4,1.9c-0.4,0.5-0.9,0.8-1.5,1.1c-1.7,0.9-3.4,1.6-5.5,0.8c-1.5-0.6-2.8,1-4.3,0.7c-0.7-1-1.8-0.8-2.9-0.8
		c0.9,0.1,1.7-0.1,2.4,0.6c0.2,0.4,0.2,0.9,0,1.3c-0.8,0.9-1.9,1.2-2.9,1.8c-2.6,0.6-4.9,1.6-6.9,3.4c-0.9,0.8-1.9,1.4-3.2,1.3
		c-2.5-0.5-4.6,0.7-6.9,1.2c-4.5,1-9,1.9-13.7,1.7c-4.4,0.1-8.8-0.2-13.1-0.6c-1.1-0.1-2.2-0.1-2.8-1.2c2.6-2.2,5.8-1.5,8.7-1.9
		c3.8-0.6,7.9-0.4,11.3-2.7c2.8-0.7,5.5-1.4,8.4-0.9c1.6,0.3,3.7,2.6,4.5-1c5.2-3.2,9.3-7.8,14.9-11.2c-5.7,0.6-10.6,2.1-15.6,3.3
		c-1.3,0.3-3,1.3-3.5-1.2c-0.4-0.4,1.3-1.5-0.4-1.2c-1.6,0.3-3.2,1-4.9,1.3c-1.2,0.2-2.5,0.8-3.6-0.3c0-2.5-1.8-1.7-3-1.5
		c-2.6,0.5-5.2,1.4-7.9,1.1c-1.4-0.1-2.9-0.2-3.5-1.7c-0.7-1.5-0.2-2.9,0.7-4.2c0.9-1.2,1.9-2.3,3.3-3c1.5-0.8,3-1.6,3.7-3.4
		c0.4-0.8,1.1-1.4,2-1.4c2.8-0.3,5-1.8,7.2-3.3c0.3-0.1,0.6-0.1,0.9-0.1c0.4,0.2,0.8,0.6,1.2,0.5c4.8-1.5,9.9-1.9,14.2-4.9
		c3.2-2.2,6.1-4.7,9.7-6.4c1.1-0.5,2.2-1,3.3-1.1c0.9-0.1,1.7,0.3,2.2,1c0.6,0.8,0.3,1.6-0.2,2.4c-0.9,1.4-2.3,2.6-2.6,4.3
		c0.2,0.4,0.6,0.5,0.9,0.3c7.2-3.6,14-7.7,19.8-13.2c0.5-0.5,1.2-1,1-1.9c-0.2-0.7-0.8-0.6-1.3-0.5c-1.2,0.2-2.5,0.3-3.1-1
		c-0.7-1.6,0.8-2.2,1.7-3.1c0.3-0.3,0.7-0.5,1-0.8c0.2-0.1,0.2-0.3,0-0.5c-0.6-0.1-1.2,0-1.8,0c-0.8,0-1.6-0.1-2.4,0.1
		c-0.2,0.1-0.5,0.1-0.7,0.2c-0.3,0.1-0.7,0.2-1,0.4c-0.2,0.1-0.4,0.2-0.6,0.3c-0.3,0.1-0.6,0.3-0.8,0.4c-0.2,0.1-0.3,0.3-0.5,0.4
		c-0.1,0.1-0.3,0.3-0.5,0.4c-0.2,0.1-0.4,0.2-0.5,0.3c-0.2,0.1-0.4,0.2-0.5,0.3c-0.2,0.1-0.4,0.2-0.5,0.3c-0.3,0.1-0.6,0.3-0.8,0.4
		c-0.2,0.1-0.4,0.2-0.6,0.3c-0.3,0.2-0.6,0.3-0.9,0.4c-0.2,0.1-0.5,0.1-0.7,0.1c-0.9-0.2-1.1-0.9-1.1-1.8c0-0.3,0.1-0.5,0.2-0.7
		c0.1-0.2,0.3-0.4,0.5-0.6c0.2-0.1,0.4-0.3,0.6-0.4c0.2-0.1,0.4-0.2,0.6-0.3c0.2-0.1,0.4-0.2,0.6-0.3c0.3-0.1,0.6-0.3,0.8-0.5
		c0.1-0.2,0.3-0.4,0.4-0.6c0.2-0.4,0.4-0.7,0.7-1c3.9,0.7,7.9,0.7,11.8,0.6c1.1,0,1.8,0.4,2.4,1.3c0.3,0.6,0.7,1.1,1.1,1.6
		c1.5,2,1.7,2.3,0.1,4c-2.3,2.4-3.2,5.5-5.1,8.1c-0.9,1.3-0.5,2,1.1,2.7c0.8,0.3,1.7,0.3,2.5,0.4c1.4,0,2.8,0.1,4.2,0.1
		c-0.5,2.2-2.4,1.4-3.7,1.4c-6.8-0.2-11.8,3.3-16.2,7.9c4.8-1,9.4-2.9,13.9-4.6c4.6-1.7,9-4.1,13.7-5
		C596.4,43.2,595.6,43.5,595.3,42.9z"/>
	<path fill="#234A6E" d="M529.4,81.2c-0.4,1-1,1.7-2.1,1.8c-3.2,0.3-6.3,1.3-9.5,1.4c-2.8,0.1-5.5,0.5-8.3,0.7
		c-3.1,1.8-6.6,1.3-9.9,2.1c-2.3,0.5-5-0.3-6.7,1.9c-0.1,0.7-0.8,0.9-1.2,1.4c1,0.4,2.3-0.1,3.1,1c-0.1,1.6-1.2,1.8-2.5,1.9
		c-1.7,0-3.4,0.1-5.1-0.1c1.8,0.6,3.8-0.5,5.6,0.4c1.4,2.1,4.1,1.5,5.8,3c0.2,1.7,1.4,2.1,2.8,2.6c1.8,0.7,3.9-0.1,6,1.7
		c-4,0.3-7.4-0.6-10.8-0.9c-2-0.2-4-0.7-6-1c-0.6-0.1-1.3-0.6-1.7,0.3c-0.3,0.8,0,1.8,0.7,1.9c1.8,0.4,3.4,1.8,5.5,1.3
		c0.4-0.1,0.8-0.1,1.3-0.2c2.9-0.2,3.4,0.2,3.4,3.1c0,2.7,0.2,2.3,2.7,3.4c4.3,2.1,7.6,0,11.1-1.8c1-0.5,1.8-1.1,3-1
		c0.8,4,0.8,4,4.6,2.1c2.6-1.3,5.2-3,8.4-2c-0.5,0.8-0.5,1.5,0.5,1.7c0.8,0.2,1.7,0.1,2.5,0.2c2.7,0,5.3,0,8,0.1
		c0.2,0.9-0.5,1.1-1.1,1.3c-1.6,0.5-3.3,1-5.1,0.8c-5.9-0.6-11.4,1.1-16.8,3.2c-1.4,0.6-2.2,2.6-4.4,1.8c-0.4-0.2-0.3,1.1-0.5,1.7
		c-0.5,2.4-0.2,4.9-1.5,7.1c-0.7,0.2-1.4,0.2-1.8-0.4c-0.7-1.5-0.8-2.9,0.3-4.2c0.5-0.6,0.5-1.2-0.1-1.7c-0.5-0.4-1.1-0.3-1.4,0.1
		c-1.2,1.4-3.2,2-4.1,3.6c-1.1,2-2.7,1.9-4.4,1.5c-1-0.3-2.1-0.5-2.9-1.4c-1-1.1-2.4-1.3-3.8-1.6c-0.6-0.2-1.5,0-1.2-1
		c0.2-0.7,0.9-0.9,1.6-0.6c0.8,0.3,1.7,0.4,2.5,0.2c0.8-0.2,1.8-0.4,1.9-1.5c0.1-1-0.6-1.8-1.4-1.9c-1.9-0.3-3-1.2-3.5-3.1
		c-0.4-1.6-1.8-1.2-2.9-0.7c-1.3,0.5-1.7,0.1-1.6-1.4c0.2-2.1-0.3-2.7-2.2-2.1c-2.1,0.7-2.4-0.1-2.5-1.8c-0.1-0.9-0.4-1.9-0.6-2.8
		c-0.1-0.8-0.2-1.6-1.1-1.8c-1.2-0.2-1.3,0.8-1.6,1.6c-0.2,0.5-0.4,1-0.7,1.7c-1-0.7-1.4-2.5-3.1-1.6c-1.4,0.8-2.1,1.8-2,3.4
		c0,0.8,0,1.5,0,2.5c-1.4-0.8-1.3-2.6-2.9-2.8c0.7-1.3,1.8-2.2,2.1-3.5c0.3-1.4,0-2.3-1.4-2.2c-2.6,0.3-3.9-1.3-5.3-2.9
		c3-4,3.2-2.7-0.4-5.9c-2.2-2-2.6-1.9-4.7,0.4c-0.2,0.2-0.4,0.4-0.7,0.7c-0.8-4.4-1.7-3.7-4.4-1.8c-0.7-0.6,0.1-1.1,0.1-1.7
		c0-1.1-0.6-1.6-1.6-1.7c-1.1,0-1.5,0.7-1.5,1.7c0,0.7,0.1,1.3,0.6,1.7c0.5,0.4,1.3,0.6,0.5,1.4c-0.7,0.7-1.4,0.6-1.9-0.1
		c-0.8-1.1-2.1-1.5-3-2.5c0.3-0.4,0.5-0.8,0.8-1.1c2.2-2.4,2-3.2-0.8-5c-1.4-0.8-2.9-0.7-4.4-0.9c-0.4-1.5,1.1-1.5,1.6-2.2
		c0.7-1.2,0.7-2.1-0.5-2.7c-4.8-2.4-9.3-5.4-14.3-7.4c-2-0.8-2.3-1.8-1.5-3.5c0.4-0.9,1-1.7,2.1-1.6c1.1,0.1,1.3,1,1.6,1.7
		c0.8,2.1,0.8,2.1,2.8,1.2c0.9-0.5,1.6-0.3,2.3,0.4c1.9,1.7,4.1,2.3,6.5,1.6c1-0.3,1.6,0,2.2,0.6c0.8,0.9,1.8,1.1,2.5,0.2
		c1.1-1.5,2.8-2.3,3.9-3.8c2.5,1.3-0.3,2.5,0.1,4.1c1.9,0,2.1,2.4,3.8,3.2c1.1,0.1,1.8,0.8,2.8,1.1c0.4,0.1,0.9,0.3,1.2,0
		c2.3-2,5.1-3.2,8-3.9c1.7-0.4,2.3-2.6,4.2-2.6c0.7,0.8,0.8,1.7,0.8,2.6c-1.4,2.9-4.7,3.8-6.4,6.4c-0.7,0.7-1.4,1.3-2,2
		c-2.3,2.9-5.2,4-8.9,3.2c2.6,1.6,4.7,1.9,6.9-0.5c1.4-1.6,3.7-2.1,5.8-2.4c2.5,0.5,4.8-0.3,7.2-1.1c1.3-0.4,2.6-0.9,4.1-0.7
		c0.8,0.3,1.3,0.8,1.7,1.5c0.5,0.2-1.2,1.2,0.4,1c0.9-0.1,2-0.6,2.1,1c-1.3,1.9-3.4,2.1-5.4,2.3c-1.3,0.2-2.5,0.4-4.5,1.1
		c2.8,0.3,4.8,0.3,6.9-0.2c11.6-2.6,23.4-3.3,35.2-4.2c2.4-0.2,4.7-0.6,7.1-0.8C527.2,80.5,528.4,80.1,529.4,81.2z"/>
	<path fill="#B64033" d="M568.1,28.1c-0.2,0-0.4,0-0.6,0.1c-0.2,0.2-0.4,0.4-0.6,0.6l0,0c-2.4,3.3-5.9,5.1-9.6,6.2
		c-4.4,1.3-8.4,3.2-12.3,5.7c-0.4,0.2-0.7,0.5-1.1,0.7c-0.9,0.4-2.1,1.4-2.8,0.2c-0.6-1,0.4-2,1.1-2.7c0.2-0.2,0.5-0.4,0.7-0.6
		c2.9-2.3,7.3-3.6,5.5-8.9c-3.5,2-7.4,4.2-11.1,6.6c-3.6,2.3-7.5,4.3-11.1,6.6c-0.9,0.6-1.8,1.4-2.9,0.7c-1.3-0.7-0.5-1.9-0.3-2.9
		c0.1-0.5,0.3-1-0.2-1.7c-1.7,0.1-3,1.4-4.2,2.5c-2.3,2.2-5.2,3.5-8.1,4.6c-2,0.8-3.3,0.2-2.5-2.3c1.2-2.1,3-3.6,4.9-5
		c2.3-1.4,4.2-3.3,6.6-4.9c-1-0.7-2.2-0.8-2.9-0.3c-3.6,2.3-6.7,0-9.8-1c-2.1-0.6-0.6-2.1,0.1-3c1.2-1.4,3.3-2,3.9-4.8
		c-5.3,1.8-9.9,3.6-13.1,7.9c-0.3,0.5-0.7,1-1.3,1.4c-0.8,0.5-1.7,0.7-2.7,0.8c-1.7-0.3-3.4-1-5.1,0.1c-1,0.6-1.8-0.1-1.9-1.2
		c-0.2-1.6,0.9-2.5,2-3.4c4.3-3.3,8.5-6.8,13.3-9.4c-0.7,0.4-1.1,0.2-1.4-0.5c-0.1-1.6,1.1-2.2,2.3-2.8c4.1-2.2,8.6-3.2,13.2-4
		c0.2,0,0.5-0.1,0.6,0c3.2,1.7,6.8,1,10.2,1.9c4.7,2,10,1.3,14.7,3.1c7.3-0.5,14.1,2.1,21.2,3.2c2.9,0.4,5.3,1.5,7.3,3.6
		c0.4,0.6,0.5,1.3,0,1.9l0,0c-0.3,0.4-0.9,0.3-1.3,0.7l0,0C568.6,27.7,568.4,27.9,568.1,28.1z"/>
	<path fill="#B64033" d="M433.2,285.4c-0.1-0.2-0.2-0.4-0.2-0.6c-0.1-1.4,0.1-2.9-1.2-3.8l0,0c-5.2-1.2-8.3-4.6-9.8-9.5
		c-1.1-3.7-2.5-7.3-3.6-11.1c-0.4-1.4-1.2-2.8-0.1-4.3c1.3-0.6,2.7-0.3,4-0.2c2.9,1.7,3,5.1,4.3,7.7c0.8,1.6,1.5,3.1,3.3,4.1
		c2.1,1.2,3.4,1.9,5.5-0.1c1.5-1.4,2,0.6,2.6,1.6c0.8,0.1,0.9-0.5,1.2-0.9c1.7-1.9,2.5-1.7,3.8,0.5c0.4,0.6,0.4,1.6,1.4,1.5
		c0.7-0.1,0.8-0.9,1-1.5c1.5-4.7,5.7-5.8,9.6-7.2c2-0.7,2.4,1.1,3,2.6c2.3-2,5.3-1.4,7.6-2.8c1-0.6,1.6,0.6,2.3,1.3
		c1-4.1,1.5-4.5,4.8-3.9c0.4,0.4,0.7,0.8,1.2,1.1c5.3,2.3,5,6.8,4.4,11.4c-0.2,1.2-0.7,2.5-0.1,3.8c1.9,0.4,2.4-3,4.5-1.5
		c1,0.7,0.9,1.9,0.1,2.8c-2.4,1.9-3.4,4.6-3.8,7.6c-0.3,2-0.7,4-1.1,6c-0.1,0.6-0.4,1.3-1.2,1.3c-0.7,0-1.2-0.4-1.5-1
		c-0.4-0.9-0.5-1.8-0.4-2.8c0.3-1.7,0.4-3.4,0.6-5.1c0.1-0.8-0.1-1.6-1-1.7c-0.8-0.1-1.1,0.6-1.2,1.2c-0.6,1.8-1.1,3.7-1.7,5.5
		c-0.3,0.8-0.3,2.1-1.6,2c-1.5-0.1-2.3-1.1-2.5-2.5c-0.1-0.5,0-1.1,0-1.6c-0.1-3.2-1-3.8-3.9-2.9c-0.5,0.2-1,0.4-1.5,0.5
		c-1.3,0.2-2-0.5-2.3-1.7c-0.2-0.7,0-1.5-0.5-2.2c-0.4-0.5-0.9-0.7-1.4-0.4c-0.5,0.2-0.4,0.7-0.2,1.1c0.2,0.4,0.4,0.8,0.4,1.2
		c0.2,0.9-0.2,1.5-1.2,1.2c-2.4-0.6-5.1-0.7-6.4-3.5c-0.4-1-1.4-0.9-2.1-0.1c-0.9,0.9-1.7,1.9-2.2,3.1c-0.1,3.7-2.5,5.5-5.7,6.3
		C437.5,288.4,434.9,288.1,433.2,285.4z"/>
	<path fill="#030404" d="M422.8,256.5c-1.5-0.2-3-0.3-4.5-0.1c-2.4,0.9-4.7,0.5-7-0.6c-6.7-1-13.4-1.1-20.1-1.9
		c-3.3-0.4-6.6-0.7-9.9-0.9c-2.9-0.1-5.7-0.6-8.6-1c-2.3-0.3-4.7-0.5-7-0.7c-8.5-0.9-17-2.1-25.4-3.2c-9.4-1.2-18.8-2.8-28.2-4.1
		c-3.4-0.4-6.7-1.2-10.1-1.8c-2.6-0.5-2.9-1-2.4-3.7c0.7-4,1.4-8,2.1-11.8c-0.4-0.6-0.8-0.7-1.2-0.6c-7.1,0.4-14.1-0.9-21.2-0.7
		c-3.1,0.1-3.7-0.6-2.9-3.6c0.7-2.5,1-5,1.5-8c-9.3,0-18.4,0-27.5,0c-9,0-18.1,0-27.1,0c-9.1,0-18.2,0-27.8,0c0.8-1.3,1.2-2.3,2-3
		c3.1-2.8,5.7-6.1,8.5-9.3c5.2-6,10.8-11.6,15.9-17.7c2.1-2.4,4.2-4.8,6.5-7.2c1.1-1.2,1.4-2,0.1-3.2c-3.9-3.6-7.2-7.6-10.8-11.5
		c-5.5-6.1-11.4-11.9-16.6-18.4c-1.2-1.5-2.7-2.7-4.1-4.2c-0.6-0.6-1.5-1-1.2-2.3c1-0.5,2.2-0.3,3.4-0.3c25,0,50,0,75,0
		c4.8,0,3.7,0.5,3.3-4c-0.2-1.5-0.7-2.9-1-4.4c-0.5-2.6,0-3.3,2.7-3.3c8.1,0,16.2,0.4,24.2-0.1c16.7-1,33.3-0.2,50-0.6
		c0.6-0.6,1.3-0.8,2-0.8c9.4-0.1,18.8-0.5,28.2,0.2c1.8,0.7,3.7,0.6,5.4,0.3c7-1.3,13.9,0.3,20.8,0c0.6-0.2,1.2-0.3,1.9-0.3
		c9.9-0.5,19.8-0.5,29.7-0.3c8.5,0.2,17-0.2,25.5,0.3c14.5,0.9,29,0.7,43.5,0.2c13-0.5,26-0.1,39-0.4c1.6,0,3.2,0.2,4.8-0.4
		c5.2-0.7,10.3-0.2,15.5-0.2c3.4,0.6,6.8,0.7,10.2,0.6c9.2-0.3,18.3,0,27.5-0.1c5-0.1,10,0,15,0c1.3,0,2.6-0.1,3.7,0.8l0.1,0.2
		c-0.6,2.1-2.4,1.4-3.7,1.5c-4.4,0.3-8.8-0.5-13.2,0.5c-4.8,0.4-9.5,0.5-14.3,0c-1.5-0.5-3-0.4-4.5-0.4c-63.7,0-127.4,0-191.2,0
		c-1.5,0-3,0-4.5,0.4c-1.8,0.4-3.6,0.3-5.5,0.3c-13.8,0-27.6-0.3-41.4,0.1c-21.6,0.6-43.3,0.5-64.9,0.6c-3.7,0-3.9,0.4-3.3,4
		c0.7,3.7,1.3,7.4,1.9,11.1c0.1,1.3,0,2.7,0.5,3.9c0.3,1.6,0.3,3.3,0.3,5c-0.1,1.3,0.1,2.6-0.6,3.8c-0.2,0.3-0.6,0.5-0.9,0.4
		c-0.5-0.3-0.7-0.8-0.8-1.4c-0.2-1.4,0-2.8-0.6-4.2c-0.7-2.2-0.8-4.4-1.1-6.7c-0.6-4.3-0.8-4.5-5.1-4.5c-12.3,0-24.5,0-36.8,0
		c-10.7,0-21.3,0-32,0c-1.1,0-2.3-0.2-3.7,0.4c1.7,2.6,3.7,4.6,5.7,6.7c7.6,8.3,15.3,16.6,22.9,25c3.3,3.6,3.4,4.6,0.2,8.1
		c-9.2,9.8-17.9,20.1-27.1,29.8c-0.6,0.6-1.4,1.1-1.3,2.1c1,0.7,2.1,0.4,3.1,0.4c22.8,0,45.6,0,68.5,0c2.1,0,4.1,0,5.9-1.1
		c0.4-0.1,0.7-0.1,1,0.2c0.6,0.8,0.7,1.8,0.7,2.7c0,2.3-0.4,4.5-0.9,6.7c-0.5,2.4,0.4,3.1,2.7,3.1c4.4,0,8.8,0.1,13.2,0
		c5-0.2,9.9,0.7,14.8,0.7c0.8,0,1.5,0.2,2.1,0.6c0.3,0.3,0.4,0.6,0.2,1c-3,0.7-6.1-0.4-9,0.6c-0.7,4.2-1.3,8.5-2.1,12.7
		c-0.3,1.4,0,1.9,1.4,2.1c12.5,2.1,25,4.1,37.6,5.8c11.5,1.5,23,3,34.6,4.2c10.3,1.1,20.5,2,30.8,2.9c7.3,0.6,14.6,1,21.9,1.5
		c0.6,0,1.2,0.2,1.9,0.4c-1.8,1.6-4,0.8-6,0.9C423.1,256.5,422.9,256.5,422.8,256.5z"/>
	<path fill="#020202" d="M608.9,125.6c0.9-0.8,2-0.5,3-0.5c3.6,0,7.2,0,10.8,0c1,0,2.1,0.3,3-0.6c15.1,0,30.2-0.6,45.2,0.1
		c13,0.6,26,0.1,39,0.5c3.1,0.1,3.6,0.6,2.7,3.7c-0.7,2.5-1,5-1.4,7.9c27.5,0,54.8,0,81.9,0c0.6,1.4-0.3,1.9-0.9,2.4
		c-4.3,4-8.1,8.7-12.1,12.9c-4.9,5.1-9.5,10.5-14.4,15.6c-1.8,1.9-3.5,4.1-5.4,6c-0.7,0.7-1,1.4-0.2,2.2c1.2,1.1,1.9,2.6,3,3.8
		c5.7,5.8,10.9,12.1,16.4,18.1c2.9,3.2,5.6,6.5,8.7,9.5c1.8,1.8,3.6,3.6,5,6.1c-1.1,0.6-2.3,0.3-3.4,0.3c-25,0-50,0-75,0
		c-4.1,0-4.1,0-3.4,4c0.3,1.8,0.7,3.6,1.1,5.3c0.4,1.9,0.1,2.2-1.9,2.3c-0.1,0-0.2,0-0.3,0c-6.2-0.5-12.4,1-18.7,0.7
		c-2.7-0.1-3.3,0.6-2.7,3.2c0.9,3.5,1.1,7.2,1.9,10.7c0.4,1.7-0.3,2-1.8,2.2c-6,0.5-11.8,2-17.7,2.9c-5.1,0.8-10.1,1.5-15.2,2.3
		c-4.1,0.6-8.2,1.2-12.4,1.8c-4.1,0.5-8.3,1-12.4,1.5c-5,0.6-10,1.2-14.9,1.8c-2.1,0.3-4.3,0.5-6.4,0.6c-3.3,0.2-6.6,0.6-9.9,0.9
		c-3.4,0.3-6.8,0.6-10.2,0.9c-6.5,0.6-13,1.3-19.6,0.8c-0.4,0-0.7-0.4-1.1-0.6c4.3-0.9,8.8-0.8,13.2-1.1c19.1-1.5,38.1-3.5,57.1-5.9
		c16-2.1,31.9-4.4,47.8-7.2c2.2-0.4,2.2-0.4,1.8-2.7c-0.6-3.6-1.5-7.2-1.7-10.8c-0.2-1.4-1-1.8-2.5-1.8c-2.8,0.1-5.6,0.2-8.4-0.1
		c-0.3-0.3-0.3-0.7-0.1-1c4.1-1.3,8.5-1.2,12.7-1.4c5.8-0.3,11.6-0.1,17.4,0c2.5,0,3.3-0.9,2.7-3.3c-0.5-1.9-0.9-3.8-0.9-5.7
		c0.1-0.9,0.1-1.9,0.6-2.8c0.3-0.3,0.6-0.4,1-0.4c1.5,0.4,2.9,0.6,4.5,0.6c23.7,0,47.4,0,71,0c0.7,0,1.5,0.3,2.3-0.5
		c-1.9-3-4.6-5.3-6.9-7.9c-6.9-7.7-13.8-15.4-20.8-23c-0.5-0.6-1.1-1.1-1.5-1.7c-2.4-2.9-2.3-3.9,0.1-6.7
		c9.2-10.3,18.6-20.3,27.9-30.5c0.5-0.5,1.2-0.9,1.1-1.9c-0.9-0.8-2-0.4-3.1-0.4c-23,0-46.1,0-69.1,0c-1.6,0-3.3-0.3-4.6,1
		c-0.9,0.9-0.8,2-0.9,3.1c-0.1,0.5-0.2,1-0.6,1.4c-0.3,0.2-0.7,0.2-1-0.1c-0.2-0.3-0.4-0.6-0.5-1c-0.2-0.9-0.2-1.9-0.3-2.8
		c0-3,0.9-6,1.3-8.9c0.6-4,0.4-4.2-3.7-4.2c-14.6,0-29.3,0.4-43.9-0.1c-16.4-0.6-32.7-0.4-49.1-0.6
		C611.4,126.7,610,126.9,608.9,125.6z"/>
	<path fill="#72211E" d="M616.6,73.3c-2.1,1.4-3,3.2-2.5,5.7c0.3,1.6-0.4,2.9-0.8,4.4c-0.7,2.3-0.3,3,2.1,3.7
		c0.6,0.2,1.2,0.3,1.8,0.6c0.8,0.3,1.1,1,1.2,1.8c0.1,0.9-0.7,1.2-1.5,1.4c-2.7,0.8-5.1,2.2-8,2.5c-1,0.1-1.5,0.6-1.9,1.4
		c-3.2,6-10.8,9.2-17.2,7.4c-0.8-0.2-1.8-0.4-2.3-1c-2.8-3.3-6.5-2.8-10.1-2.4c-1.7,0.2-2.1-0.2-1.8-2c0.1-0.3,0.3-0.6,0.5-0.8
		c0.6-1.5,1.9-1,3-1c2.4,0.1,4.6-0.3,6.6-1.8c-2.6,0.2-5.2,0.1-7.7,1.1c-1.1,0.4-2.1,1.2-3.3,0.4c-1.2-1.9,0.3-2.3,1.6-2.5
		c2.2-0.3,4.2-1,6.1-1.8c1.1-0.5,2.2-1,1.6-2.6c-0.8-1.8,1.6-1.3,2-2.6c-0.7-0.5-1.6-0.3-2.4-0.4c-1.3-0.1-2.4-0.1-2.2-1.9
		c0.1-1.3-1-1.2-1.9-1.2c-1.2,0-2.4,0-3-1.3c-0.5-1.7,0.6-2,1.9-2.2c1.5,1,3,1.5,4.9,1.4c0.9,0,2.2-0.1,2.5,1.1
		c0.7,2.7,2.7,2,4.4,1.7c2.2-0.4,3.9-1.8,5.1-3.6c1.6-2.3,3.4-3.4,6.3-2.2c2.5,1,5.1,0.1,7.5-0.8c1.1-0.4,2.1-1.4,1.1-2.5
		c-4-4-5.4-10.2-10.7-13.1c-2-0.7-3.7,0.8-5.6,0.7c-1.3-0.1-3.3,1.1-3.6-1.5c5-2.2,10-4.2,15.4-5.3c1.1-0.2,2.3-0.7,3.3,0.4
		c-1,2.4-0.9,2.5,1.8,2.5c0.5,1.3-0.2,2.1-1.2,2.8c-2.2,0.3-3.9-1.6-6.5-1.6c1.9,2.2,4.1,2.6,6.5,2.3c4-0.1,4-0.1,4.5-4.1
		c2.5,0.7,3.5,1.8,2.4,3.3c-2.2,3-1.7,6.2-1.7,9.5C614,71.4,615,72.5,616.6,73.3z"/>
	<path fill="#234A6E" d="M383.3,124.3c-10.1,0-20.2,0-30.3,0.1c-1.9-1.4-4.1-2.2-5.8-3.9c-0.9-0.9-2-1.7-2.2-3
		c1.3-1.5,2.8-0.1,4.3-0.3c-0.5-1.3-1.6-1.7-2.5-2.2c-2.8-1.5-5.8-2.6-8.1-5c-0.4-0.4-1-0.4-1.5-0.2c-3.4-2.4-4.1-5.8-3.7-9.7
		c0-0.3,0.4-0.5,0.6-0.7c1.7,2,3.4,1.5,5.2,0c2.7,0.6,3,0.9,3.8,3.9c-0.5,0.5-1,0-1.4-0.1c-0.8-0.3-1.5-0.2-2,0.5
		c-0.4,0.7,0.3,1.2,0.7,1.6c1.9,2.1,4.4,3.4,6.6,5.2c1.3,1.1,2.9,1.9,4.1,3.1c1.7,1.8,3.7,1.3,5.7,1.1c0.5,0,1.1-0.3,1.1-1
		c0.1-0.8-0.5-1.1-1.1-1.3c-0.1,0-0.2,0-0.3,0c-3.7,0.5-5.4-1.4-5.9-4.8c-0.1-1-0.6-1.8-1.8-2c-2-0.3-2.5-1.8-2.4-3.6
		c0.8-1.7-0.8-3.2-0.3-4.9c0.1-0.3,0.4-0.5,0.6-0.6c0.8,0,1.5,0.2,2,1c1.1,3.5,3.6,6.2,5,9.7c2.6-3.7,2-6.6-1.6-8.3
		c-1-0.5-2.1-0.6-3-1.2c-0.7-1.7,1.1-1,1.5-1.5c-1.2,0-2.2-0.3-2.3-1.8c1.4-0.2,2.8-0.1,4.1,0.2c2.6,0.6,5.3,0.3,7.9,0.2
		c0.6,0.9,0.6,1.9,0.1,2.6c-1.6,2.1-1.4,4.7-2.5,6.9c-0.7,1.5,0,2.5,1.1,3.3c1.3,1,2.8,1.5,4.4,1.9c0.5,0.1,1.1,0.3,1.4-0.2
		c0.4-0.6-0.2-0.9-0.6-1.3c-0.3-0.3-0.6-0.6-0.9-0.9c0.8-0.9,2-0.6,3-0.9c2.3-0.6,3.4-2.2,3.1-4.5c-0.3-2.4-1.9-2.5-3.8-2.3
		c-0.9,0.1-1.7,0.1-2.4-0.6c1.2-1.9,3.1-2.4,5.1-1.8c2.5,0.8,4,2.9,4.5,5.4c0.8,3.9-2.3,8.9-6,10.3c-0.7,0.3-1.5,0.3-2,1
		c-0.6,0.9,0.3,1.3,0.6,1.9c0.7,1.3-0.1,2.2-1,3.1c-0.6,0.6-1.3,1.2-0.7,2.2c0.5,0.8,1.3,1.2,2.2,1.1c1.9-0.4,3.8-0.1,5.6-0.2
		c2.4-0.1,4.7-1.3,7-2.2c0.3-0.1,0.7-0.7,0.6-1c-0.4-2.1,0.9-2.3,2.4-2.3c1.6,0,3.2,0.1,4.6-1.1c0.7,2.8-1.5,3.9-2.4,5.6
		C383.2,121.7,384.1,123.2,383.3,124.3z"/>
	<path fill="#72211E" d="M472.5,259c-1.9-0.4-3,0.3-3.5,2.3c-0.2,1-0.3,2.1-1.3,2.9c-0.6-0.4-0.3-1.2-0.6-1.7
		c-0.5-0.8-1.1-1.1-1.8-0.4c-1.2,1.1-2.3,1.5-4,1.2c-1.6-0.3-2.4,1.5-3.6,2.2c-0.4,0.1-0.6,0-0.6-0.3c-0.3-3.7-0.3-3.7-3.9-2.3
		c-1.3,0.5-2.5,1.1-3.8,1.8c-1.8,0.9-3,2.4-3.4,4.4c-0.2,1.1-0.2,2.6-1.8,2.6c-1.3,0-1.5-1.3-1.9-2.3c-0.3-0.7,0.1-1.9-1.2-1.9
		c-1.3,0-1.4,1.1-1.6,2.1c-0.1,0.8-0.5,1.5-1.4,1.4c-0.7-0.1-1-0.8-1-1.4c0-0.4,0-0.9-0.1-1.3c-0.2-0.7-0.7-0.8-1.2-0.4
		c-0.4,0.3-0.6,0.9-0.9,1.3c-1.5,1.9-2.1,1.9-3.8,0.2c-0.4-0.4-0.7-1.1-1.1-1.1c-2.7,0.2-2.9-2-3.7-3.7c-1.1-2.7-2.2-5.3-3.4-8
		c0,0,0-0.3,0-0.3c4.5,0.1,9-0.1,13.5,0.2c4.1,0.2,8.1,0.7,12.2,0.6c0.8,0,1.5,0,2.1,0.7c0.6,0.6,1.4,0.5,2.1,0.5
		c4.1,0,8.1,0,12.2,0c2.5-0.6,5-0.2,7.5-0.2C472.7,258.3,472.8,258.6,472.5,259z"/>
	<path fill="#234A6E" d="M578.4,78.5c-0.8,0.5-1.8,0.9-1.9,2c-7,4.5-14.2,8.8-21.7,12.5c-3.3,1.6-6.7,2.8-10.3,3.7
		c-0.4,0.1-0.8,0.3-1.2,0.4c-0.8,0.2-1.6,0.1-1.9-0.7c-0.4-0.9,0.3-1.3,0.9-1.8c0.7-0.6,2-0.2,2.4-1.5c-0.8-1.3-2.2-1.4-3.6-1.6
		c2-3,5.2-4.1,8.3-5.4c1,0.1,1.9-0.2,2.7-0.7c5.8-3.3,11.5-6.7,16.9-10.5c0.4-0.2,0.8-0.4,1.2-0.7c1.1-0.8,2-0.6,2.6,0.6
		c-0.1,0.8-1,1.4-0.6,2.4c1.1,0.3,1.9-0.4,2.7-0.9c2.8-1.7,3.1-1.6,4,1.7C578.8,78.1,578.7,78.4,578.4,78.5z"/>
	<path fill="#B44133" d="M625.6,124.3c-6.2,0.3-12.4,0.2-18.6,0.1c-4.8-0.5-9.5-1.6-14.3-1.7c-2.2,0-4.3-0.6-6.2-1.5
		c-4.6-2.1-9.5-2.6-14.5-2.3c-1.7,0.1-3.4,0.2-5.1-0.5c-0.6-0.2-1.2-0.6-1.2-1.3c0-0.8,0.8-0.9,1.4-1.1c0.3-0.1,0.6-0.1,1-0.1
		c0.9-0.2,2.3,0.5,2.5-0.7c0.2-1.5-1.4-1.7-2.5-1.9c-4.6-0.9-9.2-2-14-1.2c-1.8,0.3-3.5,0-4.1-2.1c0.1-0.8,0.7-1.2,1.3-1.6
		c1.5-0.8,3.1-1.2,4.6-0.2c8.6,1.6,17.2,3.3,25.1,7.2c0.8,0.4,1.8,0.6,2.7,0.8c6.4,0.8,12.8,1.9,19.3,1.5c1.6-0.1,3.2,0.5,4.8,0.8
		c5.7,1.1,11.6,1.4,17.3,2.1c1,0.6,2.2,1,1.4,2.5C626.1,123.5,625.9,123.9,625.6,124.3z"/>
	<path fill="#234A6E" d="M440.3,63.6c-0.2-2.1-0.9-3.9-2.5-5.6c-0.7,1.1-1.5,2.1-1.9,3.1c-0.5,1.2-1,2.5-2.6,2.4
		c-1.7-0.1-1.1-1.8-1.9-2.8c-1.6,0.7-3.3,1.4-4.9,2.1c-1.8,0.8-2.4,2.3-2.4,4.2c0,0.7-0.2,1.4-1,1.4c-0.6,0-0.8-0.6-0.9-1.1
		c-0.2-0.6-0.4-1.2-0.6-1.8c-1-2.9-1.3-3.1-4.4-2.9c0.3-1.4,1.3-1.6,2.4-1.3c4.7,1.5,8.3-0.2,11.5-3.6c0.8-0.9,1.8-1.5,2.9-2
		c2.6-1.2,4.5-3.3,5.8-5.8c1-2.1,2.4-3.7,4.4-4.9c0.1,1,0.4,1.8,1.5,2.5c2-2.9,5-4.9,7-7.9c1.3-1.8,3-3.4,5.1-4.3
		c0.3-0.2,0.5-0.2,0.7,0c-1.1,2.5-3.3,4.2-5.2,6c-0.5,0.5-1.2,0.9-1.5,1.6c-2.4,5.1-5.4,9.9-7.6,15.1c-0.7,1.6-1.3,3.1-2.5,4.4
		c-0.4,0.3-0.3,0.9-0.7,1.2l0,0C440.6,63.8,440.4,63.8,440.3,63.6z"/>
	<path fill="#72211E" d="M411.3,255.8c2.4-0.2,4.7,0.1,7,0.6c1,5.5,3.4,10.6,4.9,16c1,3.7,4.1,5.9,7.3,7.7c0.5,0.3,1,0.3,1.3,0.8
		c-1-0.1-1.8,0.1-2.5,1c-1.4,1.9-1.5,1.9-3,0.2c-1.4-1.5-2.6-3.1-3.8-4.8c-2.1-2.9-4-5.9-6.6-8.4c-1-0.9-1.2-2.2-1.9-3.3
		c-1.1,0.1-0.8,0.9-0.8,1.5c-0.1,1.2-0.1,2.4-1.7,2.7c-1.7,0.3-3.3-0.2-3.9-1.6c-0.5-1.1-0.4-2.3-2.1-2.4c-0.5,0-0.3-0.6-0.2-1
		c0.8-2.6,2.1-3.4,4.7-3.2c0.3,0,0.6,0,1,0C411.1,259.6,411.2,257.7,411.3,255.8z"/>
	<path fill="#72211E" d="M472.5,259c0-0.2,0-0.3,0-0.5c0.1-0.4,0.3-0.4,0.6-0.2c0.9,0.8,2.1,0.5,3.1,0.5c4.3,0,8.6,0,12.9,0.1
		c2.3,0,2.4,0.2,1.6,2.4c-0.9,2.7-1.8,5.5-2.7,8.3c-0.9,2.8-2.6,5.2-5.2,6.7c0-0.5,0.1-1.1,0-1.6c0-0.6-0.3-1.1-0.9-1.2
		c-0.4-0.1-0.8,0.3-1,0.7c-0.7,1.5-1.9,2.2-3.6,2.6c-0.7-1.4-0.5-2.9-0.2-4.1c0.7-2.5,0.3-5.1,0.5-7.6c0.1-1.5-0.5-2.4-1.9-2.9
		C474.2,261.6,473.1,260.5,472.5,259z"/>
	<path fill="#4789BC" d="M551.5,108.8c-0.3,0.5-0.8,0.7-1.3,0.9c-3.9,1.9-8.1,2.5-12.3,3.3c-3.2-0.3-6.2,1-9.3,1.3
		c-3.4,0.3-7-1-10.7,1.9c4.8-0.5,8.9-1.9,13.2-1.2c0.3,0.2,0.5,0.4,0.6,0.7c0.3,2.2-1.3,2.7-2.9,3c-1.6,0.3-3.2,0.1-4.8,0.2
		c-3.6,0.2-6.7,1.2-7.8,5.2c-1.6-0.1-3.3,0.4-4.8-0.3c-0.8-1.6-0.3-3.2,0.2-4.7c0.3-1.1,0.6-2,0.1-3.1c-0.4-0.8-0.3-1.4,0.5-1.9
		c0.9-0.5,1.6-0.4,2.2,0.4c0.2,0.3,0.5,0.7,1.1,0.5c0.7-1-1.2-1.5-0.4-2.8c2,1.3,4,0.4,5.9-0.7c2.7-1.5,5.7-1.9,8.7-1.9
		c3.2,0,6.5,0.2,9.6-0.7c0.4-0.1,0.7-0.4,1.1-0.6c0.4,0,0.8-0.1,1.2-0.1c2-0.4,4-0.7,6-0.8C549,107.3,550.7,107,551.5,108.8z"/>
	<path fill="#B44133" d="M599.3,45.6c2.9,1.2,5.7,0.6,8.4-0.6c1-0.1,1.9-0.1,1.9,1.2c-9.3,3.3-18,8.1-27.4,11.1
		c-2.3,0.7-4.6,1.8-7.3,2c0.3-1.5,1.4-2.3,2.4-3c4.3-2.7,8.5-5.5,13-7.8c2.4-1.3,5.3-1.7,8-2.5C598.5,46,598.9,45.8,599.3,45.6
		L599.3,45.6z"/>
	<path fill="#71211E" d="M525.5,258.2c1.9,1,1.5,2.5,0.6,3.8c-1,1.6-1.9,3.3-2.5,5.2c-0.5,1.5-4.1,3.7-5.6,3.7
		c-1.7,0-3.8-2.3-4.4-4.4c-0.5-1.9-0.3-3.8-0.4-5.7c-0.1-1.3,0.5-1.9,1.9-2c1.1,0,2.4,0.4,3.4-0.5
		C520.8,257.7,523.2,257.8,525.5,258.2z"/>
	<path fill="#B43F33" d="M595.3,42.9c0.5,0.2,1.1,0,1.7,0.7c-9.9,3.9-19.4,8.3-29.6,11.1c-0.5-1.1-0.1-1.7,0.4-2.1
		c3.5-3.1,7-6.2,11.7-7.7c2.3-0.7,4.7-0.6,7-0.6c0.8,0,1.7,0.2,2.4-0.6C591,43.4,593.1,43.1,595.3,42.9z"/>
	<path fill="#4786B9" d="M498.5,96.8c-1.5-0.1-3,0.2-4.4-0.7c-0.7-0.5-1.5-0.8-1.4-1.9c0.8-0.9,1.9-1,2.9-1.1
		c9.2-0.9,18.3-2,27.6-2.6c1.3,0.1,2.6,0,3.8,0.4c0.3,0.1,0.6,0.4,0.7,0.7c0,1.1-1.1,0.6-1.5,1c-4.1,1.1-8.3,1.4-12.4,2
		c-3.6,0.5-7.3,0.6-10.8,1.7C501.5,96.8,500,96.6,498.5,96.8z"/>
	<path fill="#B44033" d="M487.4,18.4c6.5-2.5,13.2-4.2,19.9-5.8c0.6-0.1,1.3-0.1,1.9-0.1c1.2-0.2,2.4-0.6,3.5,0.2
		c0.1,1-0.7,1.3-1.4,1.5c-7,1.6-13,5.1-19.2,8.5c-0.5,0.3-1,0.5-1.5,0.6c-0.8,0.2-1.7,0.3-2.5-0.1c-0.9-0.5-1.4-1.4-1.8-2.3
		C486.1,19.9,486.6,19.2,487.4,18.4z"/>
	<path fill="#74221F" d="M490.6,22.6c5.2-2.8,10.3-6,16.1-7.8c1.9-0.6,3.9-1.1,5.8-1.7c1.7-1.5,4-0.5,5.8-1.3c0.5,0,1.1,0,1.6-0.1
		c3-0.5,5.3,0.7,7,3.2c-1.4,0.3-2.8,0-4.2,0.5c-1.4,0.5-2.8,0.4-3.8-0.8c-0.7-0.8-1.7-1-2.7-0.8c-4.5,0.9-9.1,1.8-13.2,4
		c-0.9,0.5-2,0.9-2.1,2.2c-1.8,2.9-5,3.5-7.8,4.6C491.8,24.7,490.8,24.2,490.6,22.6z"/>
	<path fill="#21496C" d="M539.2,103.8c-1.7,0.9-3.4,1.5-5.3,1.1c-0.2-0.9,0.6-1.7,0-2.6c1.1-1.1,2.4-1.4,3.8-1.3
		c10.3,0.7,20.3-1.6,30.3-3.5c1.4-0.3,2.8-0.4,4.2-0.4c0.4,0.6,0.5,1.3-0.1,1.9c-6.6,0.6-13.2,1.2-19.6,3.5
		c-4.1,1.5-8.5,1.3-12.8,1.1C539.5,103.6,539.2,103.2,539.2,103.8z"/>
	<path fill="#71211E" d="M568.2,256.3c1.3,0,2.6,0,3.9,0c1.8,0.1,2.3,0.7,1.9,2.4c-0.5,1.9-1.5,3.6-2.6,5.1
		c-0.4,0.5-0.9,0.9-1.6,0.8c-3.1-0.2-5.2-2.1-7-4.5c-0.4-0.5-0.2-1,0.2-1.5c0.7-0.8,1.4-1.6,2.2-2.4
		C566.1,255.8,567.1,255.9,568.2,256.3z"/>
	<path fill="#4687BB" d="M533.9,102.4c0.6,0.2,1.4-0.2,1.7,0.5c0.3,0.8-0.7,0.9-1,1.3c-0.2,0.2-0.4,0.5-0.6,0.7
		c-1.5,0.5-3,0.9-4.5,1.4c-3.6,0.3-6.7,2-9.8,3.5c-1,0.5-2,1.6-3.2,0.5c-1.1-1-0.8-2.3-0.3-3.6c0.1-0.2,0.2-0.4,0.2-0.6
		c2.3-2.6,5.1-4.4,8.5-5.1c0.9,1.4-0.4,1.9-1.2,2.4c-1,0.7-1.9,1.4-2.9,1.8c3.3-0.8,6.4-2.8,10-2.4
		C531.9,103.3,532.9,102.9,533.9,102.4z"/>
	<path fill="#71221E" d="M607.7,118.5c-5.9,0.2-11.8,0.5-17.6-0.6c-2.2-0.4-4.3-1.2-6.4-1.8c1.2,0,2.4-0.1,3.5,0
		c1.8,0.1,3.3-0.4,4.5-1.9c1.2-1.5,3-2.1,4.4-1.1C599.7,115.5,604.1,116.2,607.7,118.5z"/>
	<path fill="#B33F32" d="M609,54.7c-4.5,0.1-8.5,2-12.7,3.4c-2,0.7-4,1.6-6.2,1.8c-0.4,0.3-0.8,0.3-1.2-0.1
		c-0.7-0.7-1.8-1.4,0.1-1.8c3.4-0.7,6.7-2,9.9-3.3c1.7-0.7,3.4-1.2,4.7-2.6c1.5-0.6,3-0.6,4.5-0.7c2.2,0.4,2.3,1.6,1.2,3.2
		C609.3,54.6,609.2,54.6,609,54.7z"/>
	<path fill="#020202" d="M568.2,256.3c-1,0-2.1,0-3.1,0.1c-1.9,0.8-4.1-0.1-6,0.7c-1,0.6-2.1,0.9-3.1,0c-5.4,0.9-11,0.2-16.4,0.8
		c-4.1,0.4-8.1,0.4-12.3,0.6c0.4-0.6,0.7-1,0.9-1.3c11.2-0.7,22.3-1.1,33.5-1.5C563.8,256.1,566.1,255,568.2,256.3z"/>
	<path fill="#020202" d="M525.5,258.2c-2.3,0-4.7,0-7,0.1c-3.8-0.5-7.4,0.9-11.2,0.7c-4.5,0.6-8.9,1.7-13.4,0
		c-6.9-1.3-13.9-0.4-20.8-0.6c-0.2,0-0.4,0.1-0.6,0.2c-2.6-0.5-5.2,0.1-7.7-0.3c0.9-0.9,2-0.6,3-0.6c18.2,0,36.4,0,54.7,0
		C523.5,257.6,524.7,257.3,525.5,258.2z"/>
	<path fill="#6F201E" d="M493.9,258.9c4.5,0,8.9,0,13.4,0c-0.1,0.5-0.3,1-0.4,1.5c-0.7,1.7-1.8,2-3.1,0.8c-0.4-0.4-0.6-0.9-1-1.3
		c-0.7-0.7-1.7-0.5-1.6,0.4c0.1,3.6-1.5,4.2-4.6,3.3c-1.2-0.3-1.6,1.5-3.1,1.9C494,263.3,493.8,261.1,493.9,258.9z"/>
	<path fill="#020202" d="M450.5,257.6c-9.3,0.1-18.5-0.4-27.7-1.5c2.1-1.1,4.4-0.2,6.5-0.6c9.2,0.3,18.3,0.7,27.5,1
		c1.8,0.1,3.6,0.2,5.4,0.4c-0.8,0.9-1.8,0.6-2.7,0.6C456.5,257.6,453.5,257.6,450.5,257.6z"/>
	<path fill="#4786BA" d="M337.3,109.7c0.2-1.2,1-2,1.8-0.8c1.9,2.7,4.9,3.6,7.6,5c1.4,0.8,2.8,1.5,3.8,2.8c0.3,0.5,0.5,1,0.2,1.5
		c-0.3,0.5-0.9,0.5-1.4,0.3c-1.3-0.6-2.6-1.4-4.2-1C342.1,115.2,339.4,112.8,337.3,109.7z"/>
	<path fill="#6F201D" d="M433.2,285.4c3.4,2.3,6.8,2.6,10.4,0.1c1.5-1.1,1.5-2.7,2.4-3.9c0,1.1,0,2.2-0.1,3.2
		c-0.1,1.2-0.9,1.9-2,2.4c-1.1,0.4-1.7,1.2-2.2,2.3c-0.3,0.8-0.2,1.8-1.5,1.8c-1.1,0-2.4,0.4-3.4-0.5c-0.4-0.3-0.7-1.1-1.1-1.1
		C432.6,289.6,433,287.4,433.2,285.4z"/>
	<path fill="#4686B9" d="M346.4,96.7c0.1,1.2,0.6,2.2,1.1,3.2c0.5,1.1,0.2,1.8-1,2c-2.3-2.5-4.6-5-7-7.6c1.7-1.4,3.2-2.8,5.1-3.6
		c0.3-0.1,0.5-0.3,0.8-0.4c0.4,0,0.8-0.1,1.2-0.1C345.8,92.4,345.2,94.5,346.4,96.7z"/>
	<path fill="#4684B7" d="M549.4,86.3c-2.8,1.7-5.6,3.4-8.4,5.1c-1.2,0.1-2,1.2-3.2,1.5c-0.7,0.4-1.3,0.3-1.5-0.5
		c-0.3-1.3,0.9-1.8,1.7-2.5c4.8-2.5,8.8-6.2,14-8c0.7,0,1.3,0.2,1.5,1C552.7,84.8,551.7,86.3,549.4,86.3z"/>
	<path fill="#24496D" d="M538.5,90.3c-0.4,0.4-0.7,0.8-1.1,1.1c-1.4,0.9-0.6,1.2,0.4,1.5c-2.3,1.9-4.5,2.7-7.1,0.4
		c-1.3-1.1-3.1-0.2-4.6-0.6c0.3-0.5,0.8-0.6,1.3-0.6c0.4-0.4,0.9-0.6,1.6-0.6c-0.6-0.1-1.1,0-1.6,0c-1.3,0-2.6-0.1-3.9-0.1
		c0-0.6,0.4-1.1,0.9-1.2C529.2,88.9,533.9,88.5,538.5,90.3z"/>
	<path fill="#38181E" d="M574.7,94.7c0.1,0,0.2,0,0.3,0c2.9-1.7,6.2-1.8,9.4-2.6c0.4-0.1,0.8-0.4,1.2-0.4c1,0,1.6,0.7,1.8,1.6
		c0.2,0.7-0.4,1.2-1.1,1.4c-2.7,0.7-5.3,2-8.1,1.1c-0.8-0.3-1.4-0.1-2.1,0.3C575.6,95.6,575.1,95.1,574.7,94.7z"/>
	<path fill="#254C71" d="M346.4,96.7c-2.5-3-2.5-3.2,0.1-6.5c2.3-1.4,4.4-3.2,7.1-4c-0.8,2.4-2.2,4.3-4.5,5.5
		c-1,0.5-1.4,1.2-1.2,2.3c-0.2,1-0.5,1.9-1.2,2.6L346.4,96.7z"/>
	<path fill="#264D6F" d="M551.5,108.8c-1.6-1-3.3-0.4-5-0.5c-1.6-0.1-3.2-0.1-4.8-0.1c3.6-1.9,7.5-1.9,11.4-2.3
		c1.5-0.2,2.7,0.6,2.8,2.3C554.4,108.4,552.8,107.9,551.5,108.8z"/>
	<path fill="#244A6D" d="M487.4,18.4c-0.2,0.9-0.4,1.7-0.5,2.6c0.2,1.4-0.9,1.9-1.9,2.2c-2.1,0.5-4.1,1.8-6.5,1.3
		c-0.3-0.3-0.4-0.5-0.1-0.9c-0.2-0.2-0.5-0.5-0.7-0.8C480.4,20.4,484,19.7,487.4,18.4z"/>
	<path fill="#244C70" d="M530.8,103c-3.8,1.2-7.6,2.4-11.8,3.8c1-2.2,2.8-2.8,4.1-3.7c0.7-0.5,1.8-0.7,1.8-1.9
		C526.9,101.5,528.8,102.4,530.8,103z"/>
	<path fill="#B23F33" d="M609.5,59.8c0.5-0.9,0.9-1.8,1.4-2.7c1-0.9,2.1-0.6,3.2-0.5c0.8,1.2,1.3,2.7,0.1,3.8
		c-1.2,1.1-2.9,1.7-4.6,0.7C609.2,60.7,609.2,60.3,609.5,59.8z"/>
	<path fill="#601D1C" d="M609.7,113.1c3-2.2,4.3-2.1,7.3,0C614.4,115.3,613.4,115.3,609.7,113.1z"/>
	<path fill="#1C415F" d="M545.6,98c4.5-1,9.1-2,13.6-3c-4.1,2.9-8.8,3.7-13.6,3.7c-0.2-0.2-0.2-0.3-0.1-0.4
		C545.5,98,545.6,98,545.6,98z"/>
	<path fill="#4383B5" d="M339.3,99.2c0,0.5,0.2,1.3-0.3,1.5c-1.1,0.4-2.2,0.8-3.4,0.8c-1.6,0.1-1.5-1.2-1.4-2.3
		C335.9,99.2,337.6,99.2,339.3,99.2z"/>
	<path fill="#601F1C" d="M609.5,54.5c0.2-1.3,0.1-2.5-1.2-3.2c0.4-0.2,0.7-0.5,1.1-0.5c1.9-0.1,2.8,0.5,2.8,1.8
		C612.1,54.4,610.9,54.7,609.5,54.5z"/>
	<path fill="#B33F32" d="M616.6,73.3c-1.1,0.1-2.4,0.4-3-1c-0.5-1.2-0.1-2.2,1.1-2.9c0,0,0,0,0,0c0.2,0.3,0.4,0.5,0.7,0.5
		C616.9,70.8,617,72,616.6,73.3z"/>
	<path fill="#631E1C" d="M609.9,116.1c2.1-1,4-0.9,5.9,1C613.5,117.8,611.8,116.4,609.9,116.1z"/>
	<path fill="#5D1D1B" d="M555.9,257c1,0,2.1,0,3.1,0c-0.4,1.4-1.2,2.2-2.7,2c-0.5-0.1-1.2,0.1-1.4-0.5
		C554.7,257.7,555.7,257.5,555.9,257z"/>
	<path fill="#A43A2E" d="M518.4,12c-1.8,1-3.9,0.9-5.8,1.3c-0.9-1.1-2.3-0.4-3.4-0.7C512.2,11.4,515.3,11.9,518.4,12z"/>
	<path fill="#6E201D" d="M431.7,280.9c2.4,0.9,2.5,1.4,1.2,3.8C431.2,283.9,432,282.3,431.7,280.9z"/>
	<path fill="#6B211E" d="M626.4,123.2c0-1.1-0.9-1.7-1.4-2.5c0.4,0,0.8-0.1,1.3-0.1c0.8,0,1.8-0.1,2,1.1
		C628.4,123,627.4,123.2,626.4,123.2z"/>
	<path fill="#5E2225" d="M572,99.1c0-0.6,0.1-1.2,0.1-1.9c0.6,0,1.4,0.1,1.4,0.9C573.6,99.1,572.8,99.2,572,99.1z"/>
	<path fill="#101E29" d="M545.6,98c0,0.2,0,0.4,0,0.6c-0.5,0.8-1.2,0.6-2.3,0.5C544.1,98.3,544.7,97.9,545.6,98z"/>
	<path fill="#3C78A7" d="M539.2,103.8c-0.3-0.2-0.9,0-1-0.6c0-0.1,0.2-0.4,0.4-0.4c0.7-0.1,0.9,0.4,1.1,0.9
		C539.5,103.8,539.4,103.8,539.2,103.8z"/>
	<path fill="#72211E" d="M570.1,26.8c0-0.6,0-1.3,0-1.9c0.2,0,0.4,0,0.7,0C570.8,25.6,570.9,26.4,570.1,26.8z"/>
	<path fill="#72211E" d="M615.5,70c-0.4,0-0.6-0.2-0.7-0.5C615,69.6,615.3,69.8,615.5,70z"/>
	<path fill="#254C71" d="M345.2,90.3c-0.2,0.3-0.4,0.4-0.8,0.4C344.6,90.4,344.9,90.3,345.2,90.3z"/>
	<path fill="#C8E9F1" d="M567.6,226.7c-0.9,0.8-2,0.5-3.1,0.5c-47.7,0-95.3,0-143,0c-1.1,0-2.4,0.3-3.4-0.5c1.2-1.3,2.8-1,4.2-1
		c8.3,0,16.6,0,25,0c31.4,0,62.9,0,94.3,0c7.3,0,14.5,0,21.8,0C564.9,225.7,566.5,225.4,567.6,226.7z"/>
	<path fill="#150B0B" d="M312.2,225.2c0-0.2,0-0.4,0-0.5c0.7-0.8,1.7-1,2.7-1c11.6,0,23.2-0.4,34.8,0.2c1.1,0.3,2.3,0.5,3.5,0.5
		c11.4,0,22.7,0.1,34.1-0.1c10.1-0.1,20.2,0,30.4,0c1.3,0,2.6,0,3.7,0.8c0.4,0.4,0.4,0.7,0,1.1c-15.9,0.2-31.8,0.1-47.7,0.1
		c-0.3,0-0.6-0.1-0.9-0.2c-2.7,0.5-5.3,0.2-8,0.2c-11.1,0-22.3-0.1-33.4-0.2c-0.5,0-1.1-0.1-1.6-0.1c-4.8-0.5-9.6-0.1-14.4-0.2
		C314.2,225.6,313.1,226,312.2,225.2z"/>
	<path fill="#150B0B" d="M676.8,224.6c0,0.2,0,0.4,0,0.5c-3.3,0.9-6.8,0.2-10.1,0.4c-2.4,0.2-4.9-0.2-7.3,0.2
		c-10.7,0.2-21.3,0.4-32,0.1c-0.5,0.2-1,0.3-1.6,0.3c-19.3,0-38.6,0.1-57.9-0.1c-0.4-0.3-0.5-0.6-0.2-1.1c1.1-0.9,2.4-0.9,3.7-0.9
		c10.2,0,20.3-0.1,30.5,0c11.6,0.2,23.2,0,34.8,0.1c1,0,1.9-0.3,2.8-0.5c11.6-0.6,23.2-0.2,34.8-0.2
		C675.2,223.7,676.1,223.9,676.8,224.6z"/>
	<path fill="#F15D2F" d="M532.6,236.7c0.3-3.8,0.3-3.8,3.3-4c0,3.6,0,7.3,0,10.9c0,1-0.5,1.4-1.4,1.2c-1.1-0.2-2.2-0.3-3.4-0.1
		c-2.6,0.4-4.3-1.1-4.4-3.8c-0.2-2.8,1.4-4.6,4.1-4.6C531.4,236.3,531.9,236.5,532.6,236.7z"/>
	<path fill="#F15D2F" d="M494.6,243.2c-0.3-0.7-1-1.4-0.8-2.3c-0.3-0.5-0.3-1,0-1.5c0.9-2.6,1.7-3.2,4-2.9c0.2,0,0.4,0.2,0.6,0.3
		c1.3,0.1,2.9-0.9,3.8,0.6c0.7,1.1,0.1,2.5,0.2,3.8c0,0.4,0,0.9,0,1.3c-0.1,4.1-3.1,6-7,4.5c-1.2-0.5-0.9-1.3-0.9-2.1
		c1.2-1.1,2.6,0,3.8-0.5c0.2-0.2,0.4-0.1,0.6-0.1c-0.5-0.4-0.8,0.4-1.2,0.2C496.6,244.3,495.3,244.5,494.6,243.2z"/>
	<path fill="#F15F32" d="M507.5,236.7c0.7,0.3,1.2-0.3,1.8-0.3c2-0.2,3.1,0.7,3.2,2.7c0.1,1.4,0,2.8,0,4.2c0,1.3-0.6,1.6-1.8,1.6
		c-1.2,0-1.4-0.7-1.4-1.7c0-1,0-1.9,0-2.9c0-0.6-0.4-1.1-0.9-1.1c-0.6,0-1.1,0.4-1.1,0.9c-0.1,1.1-0.1,2.1-0.1,3.2
		c0,1.1-0.5,1.5-1.6,1.5c-1.1,0-1.5-0.6-1.5-1.6c0-3,0-6-0.1-9c0-1.6,1.2-1.3,2-1.4c1.1-0.2,1.2,0.6,1.2,1.4
		C507.2,235.1,506.9,236,507.5,236.7z"/>
	<path fill="#F15D2F" d="M460.7,232.6c0.7,1.7-0.1,3,0.6,4.2c0.6,0.2,1.1-0.2,1.6-0.3c2.4-0.5,3.5,0.3,3.7,2.7c0.1,1.3,0,2.6,0,3.9
		c0,1.2-0.5,1.7-1.7,1.7c-1.4,0-1.5-0.9-1.4-1.9c0-0.8,0-1.5,0-2.3c0-0.8-0.2-1.6-1.2-1.5c-0.9,0.1-1.2,0.7-1.2,1.6
		c0,0.9,0,1.7,0,2.6c0,0.9-0.2,1.5-1.2,1.5c-1,0-1.6-0.3-1.6-1.4c-0.1-3-0.1-6-0.2-9C457.8,232,459.7,233.3,460.7,232.6z"/>
	<path fill="#F15E30" d="M563.6,240.8c0,0.6,0,1,0,1.5c0,2.7,0,2.7-2.6,2.3c-0.7-0.1-1.2,0-1.8,0.2c-1.7,0.5-3-0.2-3.9-1.5
		c-1-1.6-1-3.2-0.2-4.9c0.8-1.5,2.1-2.1,3.7-2c0.3,0,0.6,0.1,0.9,0.2c1.2,0.6,2.8-0.5,3.6,0.6C564.2,238.2,563.3,239.7,563.6,240.8z
		"/>
	<path fill="#1A1616" d="M567.6,225.9c18.5,0,37.1,0,55.6-0.1c1.4,0,2.8,0.1,4.2,0.1c-4.9,0.6-9.8,0.3-14.7,0.4
		c-14.3,0.2-28.5,0.1-42.8,0.2c-0.7,0-1.5,0.1-2.2,0.1c-7.4,0-14.7-0.1-22.1-0.1c-1.3,0-2.6-0.1-3.8-0.1c-0.1-0.5,0.1-0.8,0.5-1
		c3.7-0.9,7.5-0.4,11.2-0.4c4.4,0,8.8-0.3,13.1,0.2C566.9,225.4,567.2,225.6,567.6,225.9z"/>
	<path fill="#F15F30" d="M584.9,240.7c0,2.5-2.1,4.4-4.6,4.3c-2.4-0.1-4.2-2-4.1-4.5c0.1-2.4,1.9-4.2,4.3-4.3
		C583,236.3,584.9,238.2,584.9,240.7z"/>
	<path fill="#F15F30" d="M546.1,240.9c0,0.3,0,0.6,0,1c0,3,0,3-3.2,2.5c-1-0.2-1.6,0.5-2.4,0.5c-1.8,0-2.6-0.5-3-2.2
		c-0.4-1.5-0.3-3-0.1-4.5c0.2-1.2,1-1.5,2.1-1.4c1.1,0.1,1,0.9,1,1.6c0,1,0,1.9,0.1,2.9c0.1,0.6,0.5,0.9,1.1,0.9
		c0.6,0,1.1-0.3,1.1-0.9c0.1-1,0.1-1.9,0.1-2.9c-0.1-1.3,0.5-1.7,1.7-1.7c1.1,0,1.5,0.6,1.5,1.6
		C546.1,239.2,546.2,240.1,546.1,240.9C546.2,240.9,546.1,240.9,546.1,240.9z"/>
	<path fill="#F15F30" d="M409.7,240.9c0,0.3,0,0.6,0,1c0,3.1,0,3.2-3.1,2.6c-0.9-0.2-1.4,0.3-2.1,0.4c-2.1,0.2-3-0.3-3.5-2.4
		c-0.3-1.3-0.2-2.6-0.1-3.8c0.1-1.3,0.7-1.9,2.1-1.8c1.3,0.1,1,1.1,1,1.9c0,0.5,0,1.1,0,1.6c0,0.9,0,1.8,1.2,1.9
		c1.2,0.1,1.3-0.9,1.3-1.8c0-0.7,0-1.5,0-2.2c0-1.2,0.7-1.4,1.7-1.4c1.1,0,1.6,0.5,1.5,1.5C409.7,239.1,409.8,240,409.7,240.9
		C409.7,240.9,409.7,240.9,409.7,240.9z"/>
	<path fill="#F26537" d="M492.6,241c0,0.5,0,1.1,0,1.6c0,2.2-0.5,2.7-2.3,2.1c-1-0.3-1.7-0.2-2.7,0c-2.4,0.5-3.3-0.2-3.7-2.7
		c-0.2-1.3-0.2-2.5,0.1-3.8c0.2-1.2,1-1.5,2.1-1.4c1.1,0.1,1,0.9,1,1.7c0,1,0,1.9,0.2,2.9c0.1,0.6,0.6,0.9,1.2,0.9c0.6,0,1-0.4,1-1
		c0.1-1,0.1-1.9,0.1-2.9c0-1.3,0.7-1.6,1.8-1.6c1.2,0,1.4,0.7,1.4,1.7C492.5,239.3,492.6,240.1,492.6,241
		C492.6,241,492.6,241,492.6,241z"/>
	<path fill="#F15E30" d="M474.4,239.4c1.1-2.6,2.5-3.5,4.8-3c2.1,0.4,3.5,2.2,3.5,4.4c0,2.2-1.5,3.9-3.7,4.2
		c-2.4,0.4-3.7-0.6-4.7-3.2C474.1,240.9,474,240.2,474.4,239.4z"/>
	<path fill="#F15E30" d="M585.9,237.1c1.9-1,4.2,0.1,6.3-0.7c0.9-0.3,2,0.7,2,2c0,1.7,0,3.4,0,5.1c0,1-0.6,1.2-1.5,1.2
		c-0.9,0-1.4-0.3-1.4-1.3c0-1,0-1.9,0-2.9c0-0.8-0.2-1.6-1.2-1.5c-0.9,0.1-1.1,0.8-1.1,1.7c0,0.9,0,1.7,0,2.6c0,1.1-0.4,1.5-1.5,1.5
		c-1.1,0-1.5-0.5-1.5-1.6C585.9,241.3,585.9,239.2,585.9,237.1z"/>
	<path fill="#F26133" d="M521,241.7c1.3,1.5,2.3,1,3.3,0.6c0.7-0.2,1,0.2,1.2,0.7c0.3,0.6,0.1,1-0.4,1.4c-1.2,1-4,0.9-5.5-0.2
		c-1.6-1.1-2.2-3.3-1.5-5.2c0.7-1.9,2.2-2.9,4.2-2.9c1.4,0,2.5,0.7,3.2,1.8c1.4,2.1,0.8,3.1-1.6,3.4
		C523,241.5,522.2,241.6,521,241.7z"/>
	<path fill="#F16032" d="M428.4,241.6c1.1,1.4,2,1.1,2.9,0.7c1-0.4,1.4,0.1,1.7,0.9c0.2,0.8-0.4,1.1-1,1.4c-1.8,0.9-4.3,0.4-5.6-1
		c-1.2-1.3-1.5-3.7-0.5-5.4c0.9-1.6,2.3-2.2,4-2c1.7,0.1,2.9,1.2,3.4,2.9c0.4,1.3,0.1,2.1-1.3,2.3
		C430.9,241.5,429.9,241.5,428.4,241.6z"/>
	<path fill="#1A1515" d="M372.6,226c10,0,19.9-0.1,29.9-0.1c6.3,0,12.6,0,19,0c0.8-0.7,1.7-0.8,2.7-0.8c7,0,14.1-0.1,21.1,0
		c0.5,0,1.1,0.1,1.5,0.4c0.4,0.2,0.6,0.6,0.5,1c-8.7,0-17.3,0-26,0.1c-1.1,0-2.1,0.1-3.2,0.1c-6.2-0.1-12.4-0.1-18.6-0.2
		c-7.9,0-15.8-0.1-23.8-0.1C374.7,226.4,373.6,226.6,372.6,226z"/>
	<path fill="#F15E30" d="M565.7,233.8c1.6,0.1,3,0,2.8,2c-0.1,0.6,0.5,0.8,1,1c1.5,0.8,1.5,1.7,0.1,2.6c-1.7,1.2-1.7,1.9,0.3,2.8
		c1,0.5,1,1,0.7,1.7c-0.7,1.2-2,1.1-3.1,1c-1-0.1-1.9-0.5-1.9-1.7c-0.1-1.7,0.3-3.4-1-4.8c-0.1-0.2-0.1-0.8,0.1-0.9
		C565.9,236.6,565.3,235.1,565.7,233.8z"/>
	<path fill="#F15F30" d="M454.3,245c-1.9,0-2.5-0.6-2.6-2.5c-0.1-1.2,0.4-2.6-0.8-3.6c-0.2-0.2,1-4.8,1.2-5c0.7-0.4,2.2,0.2,2.4,1.3
		c0.2,0.7,0.1,1.3,1.1,1.7c1.6,0.7,1.5,1.6,0.1,2.6c-1.5,1-1.6,2.1-0.2,2.7c0.6,0.3,1.6,0,1.5,1.2c-0.1,1.1-0.9,1.4-1.8,1.5
		C454.8,244.9,454.5,244.9,454.3,245z"/>
	<path fill="#F15F32" d="M551.8,245.2c-1.9-0.2-3.4-0.7-4.1-2.4c-0.7-1.7-0.7-3.4,0.4-4.9c1.1-1.5,2.6-1.8,4.3-1.6
		c0.7,0.1,1.3,0.3,1.3,1.1c0,0.6-0.2,1.3-1,1.5c-0.2,0.1-0.4,0-0.6,0c-1.1,0.1-1.8,0.7-1.8,1.8c0.1,1,0.8,1.5,1.8,1.4
		c1.4-0.1,1.7,0.9,1.6,1.8C553.6,245.2,552.3,244.8,551.8,245.2z"/>
	<path fill="#F26134" d="M418.2,238.8c1-1.6,2.3-2.8,4.4-2.6c0.8,0.1,1.9,0.1,1.9,1.2c0.1,0.9-0.4,1.6-1.6,1.6
		c-0.3,0-0.6,0.1-0.9,0.2c-0.6,0.3-1,0.9-0.9,1.6c0,0.7,0.4,1.2,1.1,1.4c0.4,0.1,0.9,0,1.3,0.1c0.8,0.1,0.9,0.8,1,1.4
		c0.1,0.8-0.5,1.1-1.1,1.3c-2.3,0.7-3.9-0.5-5.2-2.2C417.2,241.5,417.1,240.2,418.2,238.8z"/>
	<path fill="#F16032" d="M417.5,244.2c-2.6,1.2-4.4,1-5.8-0.6c-1.2-1.4-1.4-3.7-0.4-5.4c1.4-2.3,3.8-2.6,6.2-0.8
		c-0.1,1.5-1.4,2-2.5,3C416.2,241.5,417.6,242.4,417.5,244.2z"/>
	<path fill="#F26537" d="M473.8,239.5c-2.6,0.8-2.7,0.8-2.7,3.3c0,1.2-0.1,2.1-1.6,2.1c-1.6,0-1.5-1.2-1.5-2.2
		c0-1.4,0.1-2.8-0.1-4.2c-0.3-1.4,0.4-1.7,1.5-1.9c1.2-0.3,2.4,0.8,3.7,0.2c0.4-0.2,0.7,0.4,0.7,0.9
		C473.7,238.3,473.7,238.9,473.8,239.5L473.8,239.5z"/>
	<path fill="#F26133" d="M439.2,237.7c-0.1,0.1-0.2,0.4-0.4,0.4c-1.5,0.4-1.1,1.1-0.4,2.1c1.5,2.4,0.7,4.1-1.8,4.8
		c-0.9,0.2-1.4,0-1.9-0.7c-0.6-0.9-0.1-1.2,0.7-1.6c1.3-0.7,0.2-1.4-0.2-2c-1.3-2.2-0.1-4.4,2.3-4.5
		C438.6,236.1,439,236.9,439.2,237.7z"/>
	<path fill="#F15F32" d="M399.5,241.5c0,2.1-1.1,2.8-2.3,3.3c-0.9,0.4-1.7,0.4-2.2-0.5c-0.2-0.4-0.8-1.1-0.1-1.3
		c2.3-0.8,0.9-1.7,0.3-2.8c-1-1.9,0.3-4,2.5-4.1c0.8,0,1.2,0.3,1.5,0.9c0.3,0.6,0.1,0.9-0.5,1.2c-1,0.5-0.6,1.2-0.1,1.8
		C399,240.7,399.5,241.3,399.5,241.5z"/>
	<path fill="#F16032" d="M442.3,241.8c-0.3-0.5-0.6-0.9-0.9-1.3c-1.6-2.1,0.4-4.1,2.3-4.3c0.7-0.1,1.2,0.3,1.5,0.9
		c0.3,0.6,0,0.9-0.5,1.2c-1.2,0.7-0.3,1.4,0.1,2.1c1.2,2.2,0.7,3.6-1.6,4.5c-0.9,0.4-1.6,0.4-2.2-0.5c-0.7-1-0.2-1.5,0.8-1.8
		C442,242.5,442.1,242.1,442.3,241.8z"/>
	<path fill="#F15C2E" d="M574.8,240.8c0.1,0.9,0.1,1.6,0.2,2.4c0.1,1-0.1,1.7-1.3,1.7c-1.1,0-1.8-0.2-1.8-1.6
		c0.1-1.7,0.1-3.4-0.1-5.1c-0.1-1.3,0.5-1.4,1.5-1.4c1.1,0,2,0.1,1.7,1.5C574.9,239.2,574.9,240,574.8,240.8z"/>
	<path fill="#1A1616" d="M659.3,225.8c0.9-0.9,2-0.5,3.1-0.5c4.8-0.1,9.6-0.1,14.4-0.1c3,0,6,0.1,9,0c1.5,0,2.2,0.6,1.9,2.1
		c-0.4-1.3-1.2-1.6-2.7-1.6c-7.5,0.2-15,0.2-22.5,0.2C661.5,226,660.4,225.9,659.3,225.8z"/>
	<path fill="#1A1515" d="M312.2,225.2c4.8,0,9.6,0.1,14.4,0.1c1,0,2.2-0.3,3,0.5c-7.5,0-15.1,0-22.6,0c-1.3,0-2.6,0.1-3.9,0.2
		c0.5-1,1.4-0.7,2.3-0.8C307.7,225.2,309.9,225.2,312.2,225.2z"/>
	<path fill="#FEF2EE" d="M417.5,244.2c-0.5-0.9-0.5-2.3-2.2-2c-0.8,0.1-1.4-0.5-1.5-1.3c-0.1-1,0.4-1.8,1.3-1.8
		c1.2,0,1.9-0.7,2.4-1.6c0.1,0.5,0.1,1.1,0.6,1.4c0,1.3,0.1,2.6,0.1,3.9C417.6,243.1,417.6,243.6,417.5,244.2z"/>
	<path fill="#F26A40" d="M573.5,236.1c-0.9-0.2-1.7-0.6-1.7-1.5c0-1,0.6-1.5,1.6-1.5c1,0,1.7,0.5,1.7,1.5
		C575.2,235.6,574.4,235.9,573.5,236.1z"/>
	<path fill="#FDFEFD" d="M499.1,244c-1.3,1.8-3.1,0.3-4.5,0.7c0-0.5,0-1,0-1.6c1.2,0.6,2.4,1.1,3.7,0.7
		C498.6,243.7,498.8,243.8,499.1,244z"/>
	<path fill="#F26537" d="M474.4,239.4c0,0.8,0,1.6,0,2.3c-0.6-0.6-0.3-1.5-0.5-2.2c0,0,0,0.1,0,0.1
		C474,239.5,474.2,239.4,474.4,239.4z"/>
	<path fill="#F26537" d="M493.8,239.4c0,0.5,0,1,0,1.5C493.4,240.4,493.4,239.9,493.8,239.4z"/>
	<path fill="#234A6E" d="M411.1,124.4c-0.4,0-0.8-0.1-1.3-0.1c-0.2-0.1-0.3-0.2-0.2-0.4c0.1-0.1,0.1-0.2,0.2-0.2
		c2.7-0.8,5-2.3,7.2-4c1.9-1.4,4-2.6,6.5-2.4c0.9,0.1,1.8,0,2.2-1c0.4-0.9-0.5-1.3-0.9-1.9c-0.9-1.1-1.6-2.3-1.4-3.8
		c0.2-1,0.4-2.2,1.5-0.4c0.5,0.8,1.2,0.2,1.4-0.4c0.4-1,0.2-2.1-0.1-3.1c-0.5-2,0-2.5,2-2.4c2.4,0.1,5,2.3,5.4,4.7
		c0.2,1,0.3,2.1,1,3.3c0.4-0.8,0.4-1.5,0.3-2.1c-0.2-1.6,0.5-2,2-2c2-0.1,2.3-0.5,2.5-2.5c0-0.5,0-1.1,0-1.6c0-2.3,1.3-3.5,3.5-3.5
		c0.6,0,1,0.2,1.3,0.8c0.3,0.7-0.1,1-0.6,1.2c-0.5,0.3-1,0.4-1.4,0.8c-1,1-2,2.1-1.6,3.6c0.6,2,2.6,3.1,4.5,2.9
		c0.3,0,0.7-0.3,0.9-0.2c4.1,1.8,8.7,2.4,12.4,5c0.5,0.4,1.1,0.8,1.7,1c3.2,1.1,4,2.1,4.2,5.5c0.1,1.2,0.8,1.7,1.8,1.9
		c0.8,0.2,1.7-0.1,2.4,0.7c-7.1,0.8-14.1,0.3-21.2,0.2c-4-0.1-7.8-0.9-11.7-2.1c-2.8-0.8-5.8-1-8.3,1.1c-1.2,1-2.5,1.1-3.9,1.1
		C419.4,124.2,415.2,123.8,411.1,124.4z"/>
	<path fill="#4789BD" d="M493.2,24.2c2.6-1.3,5.3-2.4,7.7-4.1c0.5,0.3,1.3,0,1.8,0.9c-1.5,0.9-3.1,1.7-4.6,2.8
		c-3.4,2.5-6.8,5.1-10.2,7.6c-0.6,0.4-0.7,1-0.7,1.7c-1.6,3.2-5,4.7-6.9,7.7c-1.9,1.2-3.1,2.9-3.9,4.9c-1.9,4.4-4.4,8.6-6.7,12.8
		c-2.5,2.8-5.1,5.5-7.5,9c3.2-2.6,5.8-5.1,7.9-8.1c4.2-4,8-8.4,12.2-12.5c0.4-0.2,0.9-0.4,1.3-0.4c0.3,0,0.6,0.2,0.8,0.5
		c0.3,0.6,0.3,1.2,0.2,1.9c-2,5.8-6.2,10.1-10.4,14.4c-0.9,0.8-1.7,1.6-2.6,2.6c1.1-0.5,1.7-1.5,2.5-2.1c9.5-6,17.9-13.6,27.1-20
		c1.9-1.3,3.5-3.2,6.1-3.2c1.8,1.1,0.6,2.2,0,3.2c-0.3,0.4-0.6,0.7-1,1c-6,4.1-11.6,8.8-17,13.6c-3.7,3.3-7.3,6.6-11.2,9.6
		c-0.9,0.7-1.7,1.7-3.1,1.5c-1.9,1.9-3.7,3.8-6.7,4c-1.7,0.1-3.1,1.4-4.4,2.6c-0.7,0.7-1.5,1.8-2.6,0.4c-0.1-0.6,0.2-1.1,0.5-1.6
		c0.2-0.4,0.9-0.8,0.3-1.1c-0.5-0.3-1.1,0.3-1.6,0.5c-0.6,0.5-1.2,0.6-1.9,0.9c-0.4,0.3-0.8,0.7-1.3,0.9c-0.2,0.1-0.7,0.2-0.9,0.1
		c-0.2-0.1-0.3-0.6-0.3-0.8c0.4-2.7,0.4-2.7-2.4-2.6c-0.7-1.3,0.4-2.1,0.9-3.1c0.3-0.7,1.3-1.4,0.2-2.2c0.4-0.7,0.6-1.5,1.2-1.9
		c2.3-1.1,3.7-3.1,5.1-5.2c2.4-3.5,4.9-7.1,7.2-10.7c4.8-7.6,10.4-14.5,17-20.6c1-0.9,1.8-1.9,3-2.7
		C490.2,25.8,491.7,25.1,493.2,24.2z"/>
	<path fill="#FDFEFF" d="M372.3,77.3c0.6,0.2,1.4,0.4,0.9,1.3c-1.1,2.2,0.5,3.9,1,5.8c0.1,0.5,0.5,0.7,1,0.7c0.6,0,0.9-0.5,0.9-1.1
		c0.1-0.9-0.4-1.7-0.6-2.5c-0.3-1.3,0.2-2.2,1.6-2.2c2.4,0,4.3-1.1,6.2-2.3c0.7-0.4,1.5-1,2.3-1c1.6-0.1,3.1,0,4.2-1.6
		c0.5-0.8,1.8-0.4,2.8-0.3c1.8,0.1,3.4,0,4.5-1.8c0.3-0.6,0.8-1,1.6-0.8c0.9,0.3,0.9,1.1,0.8,1.9c-0.2,0.8-0.5,1.7-0.5,2.5
		c-0.2,1.5-0.4,2-2.2,1.3c-3-1.3-4.7-0.4-6.7,1.8c-1.2,1.3-0.3,2.6-0.3,4c-1.4,0.1-2.1-1.3-3.2-1.2c-0.4-0.3-0.6-0.8-1.3-0.7
		c0.4,0.3,1,0.3,1.3,0.7c0,0.4,0,1-0.4,1.1c-2,0.8-2.8,2-1.2,3.9c0.2,0.3,0.1,0.6-0.2,0.9c-0.4,0.4-0.7,0.2-1.1-0.1
		c-0.5-0.5-0.9-1.4-1.8-0.8c-0.8,0.5-0.6,1.2-0.6,2c0.1,2.1-1.2,2.9-3,1.9c-0.6-0.4-1.1-1-1.7-1.4c-3-2.3-4.9-2.1-7.6,0.6
		c-0.3,0.3-0.6,0.6-0.8,0.9c-0.6-0.1-0.7-0.4-0.9-0.8c-0.8-1.8-1.7-2.2-2.6-0.6c-1.8,3.1-5,3.1-7.9,3.5c-1.6,0.2-2.4-0.6-2.5-2.2
		c-0.1-1.6,0.5-2.1,2.1-1.8c1.3,0.2,2.5,0.6,3.8,0.8c2,0.3,2.6-0.3,2.4-2.3c-0.1-0.6-0.3-1.2-0.4-1.9c0-0.3,0.1-0.7,0.3-0.8
		c0.4-0.3,0.8-0.2,1.1,0.2c0.5,0.7,0.8,1.6,1.8,1.7c0.2,0,0.4-0.1,0.8-0.1c-0.4-0.6-1-1.2-0.9-1.7c0.1-1.2,1.4-0.2,1.8-0.7
		c1.4-1.8,2.8-1.5,4.5-0.1C371.7,81.3,371.7,79.2,372.3,77.3C372.4,77.3,372.3,77.3,372.3,77.3z"/>
	<path fill="#234A6E" d="M409.8,123.7c0,0.2,0,0.4,0,0.6c-1.6,0.1-3.2,0.2-4.8,0.2c-6.1,0-12.1,0-18.2,0c-1.2,0-2.3-0.1-3.5-0.2
		c0.2-1.2-0.5-2.6,0.6-3.7c0,0.6,0,1.3,0.1,1.9c0,0.9,0.6,1.3,1.5,1.3c1.8,0,3.7,0.1,5.5,0c1.7-0.1,2.5-1.3,3.2-2.6
		c-0.4-0.7-0.8-0.6-1.2-0.5c-2.8,0.7-3.7-0.2-3.1-2.9c0.2-1,1-1.4,1.6-0.7c1.6,1.9,3.1,1.3,4.8,0.2c0.9,0.7,0.8,1.7,0.9,2.6
		c0.1,0.8,0.1,1.9,1.2,1.9c1.2,0,1.4-1.1,1.5-2.1c0.1-1.6,0.2-3.2-0.3-4.7c-0.3-0.9-0.5-1.8-0.7-2.8c0.9-2.9,1.7-5.8,2.7-8.6
		c0.5-1.4,0.6-2.5-1-3.2c-0.7-0.3-1.3-1-0.7-1.8c0.6-0.8,1.5-0.8,2.3-0.2c1.1,0.8,2.1,1.8,2.2,3.1c0.3,2.7,2,4.4,3.8,6.1
		c1.4,1.3,2.7,2.7,3,4.8c-4.1-0.3-4.5-1.5-6.1,6c0.6,0.6,1.7-0.1,2.3,0.5c0.4,0.9-1.3,2.8-4.2,4.8
		C405.5,123.7,407.7,123.7,409.8,123.7z"/>
	<path fill="#234B6F" d="M486.1,29.5c-9.3,8.4-15.8,18.9-22.5,29.2c-1.6,2.4-3.2,4.9-5.4,6.7c-0.6,0.5-1.1,1.2-1.8,0.2
		c4.3-7.5,8.9-14.9,13.1-22.5c2.6-4.8,6.5-8.8,10.6-12.4c0.4-0.3,0.9-0.5,1.4-0.7C483.1,30.7,484.4,28.3,486.1,29.5z"/>
	<path fill="#31171D" d="M411.1,124.4c0.9-0.8,2-0.5,3.1-0.5c3.1,0,6.2,0,9.3,0c1.4,0,2.4-0.2,3.3-1.5c1.1-1.4,2.7-2.1,4.6-1.8
		c2.2,0.4,4.8-0.8,6.7,1.4c0.1,0.1,0.2,0.2,0.3,0.2c2.9-1.6,5,1.5,7.9,1.3c2.7-0.1,5.5,0.3,8.3,0.4c4.7,0,9.5,0,14.2-0.1
		c13.5,0.1,27,0.2,40.5-0.1c0.7,0,1.4,0,2.1,0.1c1.7,0,3.4,0,5.1,0c1.4-1.3,3.2-0.9,4.9-1c7-0.3,14,0.6,21-0.3
		c2.1,0.4,4.3,0.4,6.5,0.4c0.5,0,1,0,1.5,0.1c0.8,0,1.5,0,2.3-0.1c0.7,0,1.2,0.3,1.4,1c-0.9,1.1-2.2,0.7-3.3,0.7
		c-34.1,0-68.3,0-102.4,0C435.8,124.4,423.5,124.4,411.1,124.4z"/>
	<path fill="#34181F" d="M363.3,98.6c1.2,0,2.3-0.1,3.5-0.4c1.3-0.4,2.3,0.2,3,1.3c2,3,0,7.2-3.5,7.5c-1,0.1-1.9,0-2.9,0
		c-0.5-0.7-1-1.3-1.4-2.1C360.4,102.1,360.7,100.8,363.3,98.6z"/>
	<path fill="#244B6F" d="M463.5,40.4c0.4-2.1,2.1-3.2,3.6-4.3c1.8-1.4,3.4-2.9,4.8-4.7c0.4-1.2,1.2-2.1,2.4-2.5c2.5-0.7,4.3-3,7-3
		c0.5,0.1,0.8,0.5,0.9,0.9c-3.6,3-7.2,6-10.7,9c-1.6,1.3-2.7,3-3.9,4.6c-0.8,1-1.7,1.9-2.8,2.5C463.9,42.3,463.8,41.3,463.5,40.4z"
		/>
	<path fill="#254D71" d="M462.2,36.5c-3.2,4.3-5.6,9.2-8.5,13.7c-0.9,1.4-1.7,3-3.7,4.3c1.9-7.8,5.8-13.7,11.5-18.6
		C462.1,35.7,462.4,35.9,462.2,36.5z"/>
	<path fill="#341A23" d="M463.5,40.4c1.7,0.2,1.2,1.5,1.3,2.6c-1.7,4.3-4.3,8-7.1,11.6c-0.4,0.4-0.9,0.4-1.3,0
		c0.2-2.8,1.5-5.1,2.8-7.5C460.5,44.8,462,42.6,463.5,40.4z"/>
	<path fill="#341921" d="M398.9,112.2c2.4,2.4,2,5.5,1.8,8.4c-0.1,1.6-1.4,2.6-2.8,2.4c-1.6-0.2-1.7-1.4-1.7-2.6
		c0-1.1-0.1-2.1-0.1-3.2C398,116.1,398,113.9,398.9,112.2z"/>
	<path fill="#244D72" d="M456.1,109.5c-2.2-0.9-4.8-0.2-5.7-3.1c-0.3-0.9-1.1-0.2-1.6,0.1c-0.7,0.5-1.1,0.4-1.5-0.4
		c-0.4-0.9-0.8-1.7-1.3-2.6c-0.2-0.4-0.3-0.8,0.2-1.1c0.4-0.2,0.8-0.3,1.1,0.2c0.6,1.1,1.1,2.2,2.6,1c0.4-0.3,0.9,0,1.1,0.3
		c0.8,1,2,1.2,3.1,1.6C456.3,106.3,456.3,106.3,456.1,109.5z"/>
	<path fill="#244B6F" d="M482.3,26.8c-0.2-0.2-0.5-0.4-0.7-0.6c1.3-2.7,3.7-3.2,6.3-3.3c0.9-0.1,1.8-0.2,2.7-0.3
		c0.8,0.7,1.4,1.5,2.6,1.6c-1,1.7-2.5,2.5-4.4,2.6c-1.5,0.6-3,1.4-4.7,0.5C483.7,26.7,482.9,26.9,482.3,26.8z"/>
	<path fill="#F2F8FC" d="M482.4,118.6c0,1.6-1.4,3.3-2.8,3.8c-0.7,0.2-1.3-0.1-1.6-0.7c-0.5-1.1-0.3-2.1,0.4-3.1
		c0.7-1,1.7-1.8,2.9-1.8C482.5,116.8,482.2,118,482.4,118.6z"/>
	<path fill="#F6FBFD" d="M398.1,99.3c1.4,1.6,1.2,3.3,0.7,4.9c-0.4,1.2-1.4,1.3-2.3,0.8c-0.9-0.5-1.9-1.3-1-2.5
		C396.2,101.3,397.2,100.3,398.1,99.3z"/>
	<path fill="#6C2526" d="M484.1,27.4c1.5-0.8,3.1-0.6,4.7-0.5c-0.7,1.1-1.6,2-2.7,2.7c-1.2-0.2-1.8,0.8-2.7,1.3
		c-1,0.5-1.5,0.1-2-0.8C482.3,29.1,483.2,28.3,484.1,27.4z"/>
	<path fill="#275075" d="M456.3,54.6c0.4,0,0.9,0,1.3,0c-1.2,3.3-3.2,6.2-5.2,9c-0.6,0.1-0.9,0-0.7-0.7
		C452.8,59.9,454.5,57.2,456.3,54.6z"/>
	<path fill="#2C567D" d="M474.5,29.5c-0.9,0.6-2,0.9-2.6,1.8c0-0.1,0-0.2,0-0.3c0.5-1.2-1.5-1.7-0.9-2.7c0.7-1.1,1.9-1.6,3-2.2
		c1.4-0.9,2.9-1.7,4.4-2.5c0,0.2,0,0.5,0,0.7c-0.3,2.5-2.6,3-4.2,4C472.1,29.6,475.6,28.8,474.5,29.5z"/>
	<path fill="#285278" d="M423.2,96.7c0,0.9-2.1,2.5-3.1,2.3c-0.9-0.1-1.5-0.8-1.6-1.7c-0.1-0.9,1.2-2,2.5-1.9
		C422,95.4,423.2,96.1,423.2,96.7z"/>
	<path fill="#EFF6F9" d="M401.6,77.7c-1.8-1.2-1.3-2.7-0.4-4.1c0.5-0.8,0.5-2.6,1.9-2c1.6,0.6,0.5,2,0,2.9
		C402.7,75.6,402.6,76.8,401.6,77.7z"/>
	<path fill="#EDF4F8" d="M408.1,80.6c1.1,0.6,1.9,1.4,2.6,2.3c0.6,0.8,0.4,1.7-0.3,2.3c-1,0.8-1.6,0-2.1-0.7
		C407.4,83.3,407.2,82,408.1,80.6z"/>
	<path fill="#F1F8FC" d="M375.3,93c-1.5-0.2-2.5-1.2-3.4-2.1c-0.5-0.5-0.5-1.2,0-1.7c0.4-0.4,1-0.4,1.4-0.1
		C374.6,90,376,90.9,375.3,93z"/>
	<path fill="#321C26" d="M346.5,96.6c-0.2-1.2,0.2-2,1.2-2.6c0.2,0,0.4,0.1,0.6,0.2c0.6,1.1,2,1.1,2.8,2c-0.6,0.7-1.7,0.1-2.1,0.9
		c-0.1,0.3-0.3,0.3-0.6,0.2C347.7,97.3,347.1,97.1,346.5,96.6z"/>
	<path fill="#DCEBF3" d="M419.9,77.4c0.7,0.2,1.5,0.6,1.4,1.5c-0.1,0.7-0.6,1.6-1.4,1.5c-1.2-0.1-0.9-1.2-0.9-2
		C418.9,77.9,419,77.3,419.9,77.4z"/>
	<path fill="#ECF4F8" d="M407.2,74c-0.9,0-1.3-0.5-1.3-1.4c0-0.7,0.2-1.3,1-1.3c0.8,0,1.4,0.6,1.4,1.4C408.4,73.5,408,73.9,407.2,74
		z"/>
	<path fill="#2E5E87" d="M469,106.1c0,1.6-0.2,2.4-0.9,3.2C467.8,108,467.8,108,469,106.1z"/>
	<path fill="#305F88" d="M451.7,62.9c0.2,0.2,0.5,0.5,0.7,0.7c-0.6,1-1.3,1.9-1.9,2.9C450.2,65.1,451,64,451.7,62.9z"/>
	<path fill="#E7F0F7" d="M405.1,83.4c-1.2-0.4-1.3-1.3-1.1-2.3c0.1-0.3,0.4-0.4,0.7-0.2C405.6,81.6,405.7,82.5,405.1,83.4z"/>
	<path fill="#315C85" d="M458.3,35.2c-0.2,0-0.5,0-0.7,0c0.6-0.8,1-1.6,2.4-1.8C459.7,34.4,459,34.9,458.3,35.2z"/>
	<path fill="#32638E" d="M462.2,36.5c-0.2-0.2-0.4-0.4-0.7-0.7c0.4-0.8,1-1.3,1.9-1.3l0.1,0.1C463.5,35.5,463,36.1,462.2,36.5z"/>
	<path fill="#2B5C85" d="M440.8,63.6c0-0.5,0.2-1,0.7-1.2C441.5,62.9,441.3,63.4,440.8,63.6z"/>
	<path fill="#2E587F" d="M463.4,34.6c0.2-0.2,0.5-0.4,0.7-0.6l0,0C463.9,34.2,463.7,34.4,463.4,34.6
		C463.5,34.6,463.4,34.6,463.4,34.6z"/>
	<path fill="#34618A" d="M464.1,33.9c0.1-0.1,0.2-0.2,0.3-0.3c0,0.1,0,0.1-0.1,0.2C464.3,33.9,464.2,33.9,464.1,33.9
		C464.1,33.9,464.1,33.9,464.1,33.9z"/>
	<path fill="#2B5C85" d="M440.3,63.6c0.2,0,0.4,0,0.5,0C440.6,64.1,440.4,64.2,440.3,63.6z"/>
	<path fill="#34181E" d="M484.2,80.6c-0.8-0.1-1.3-0.4-1.3-1.3c0.2-1.1,1.1-1.6,2-1.9c6.3-2.5,12-6.1,18.2-8.7
		c1.9-0.7,3.9-1,5.9-2.5c-3.5,0.2-6.4,1-9.1,2.6c-1.1,0.7-2.3,1.3-3.6,1.4c-1.3,0-2.8,0.3-3.3-1.2c-0.6-1.7,0.8-2.7,1.6-4
		c1.9-2,4.4-3.1,6.7-4.6c2.6-1.3,5.3-2.3,7.3-4.4c1-0.8,2.3-0.9,3.3-1.5c5.7-2.5,10.7-6.5,16.9-8.1c1.6,0.2,2.9-0.6,4.2-1.4
		c0.9-0.5,1.8-1.1,2.9-1.3c1.1-0.2,2.2,0,2.8,1.1c0.6,1,0,1.9-0.6,2.6c-1.5,1.8-3.5,3.1-5.4,4.6c-2.2,2.2-4.5,4-7.8,4
		c-1,0-1.7,0.5-1.8,1.5c-0.1,1.6-1.1,2.1-2.4,2.6c-2,0.7-3.4,2.2-4.7,3.8c-0.8,1-1,2.1-0.5,3.3c0.5,1.1,1.5,1,2.5,1
		c2.1,0,4.3,0.2,6.4-0.7c2.2-0.9,4.4-0.5,6.8-0.5c-0.1,1.4-1.4,1.6-1.7,2.5c-0.3,0.5-0.8,0.7-1.3,0.8c-1.8,0.2-3.6,0.6-5.3,1.3
		c-5.9,2.5-12.3,3.2-18.4,4.6c-4.3,1-8.5,2.3-12.9,3.1C489,79.1,486.9,81.5,484.2,80.6z"/>
	<path fill="#34181E" d="M529.4,81.2c-5.4,0.6-10.8,1.2-16.2,1.7c-3,0.3-6,0.5-9,0.7c-6.9,0.5-13.8,1.6-20.6,3
		c-2.9,0.6-5.7,0.5-8.7-0.6c1.9-1.8,4.3-2.1,6.5-2.2c2-0.2,3.7-0.8,5.4-1.9c1-1.4,2.6-1.7,4.1-2.2c3.9-0.3,7.7-0.9,11.4-2
		c10.8-3.1,21.9-5.2,32.8-8c1.1-0.3,2.2-0.9,3.4-0.1c0.1,1,0.7,1.3,1.6,1c3.9-1.5,8.1-1.9,12.1-3.2c2.2-0.7,4.4-0.6,7.3-0.1
		c-3.1,1.8-5.6,3.3-7.8,5.2c-1,0.9-2.1,1.8-3.1,2.8c-1.8,1.7-4,2.9-6.3,3.8c-1,1.2-2.3,1.8-3.9,1.4
		C535.4,80.1,532.4,81.3,529.4,81.2z"/>
	<path fill="#72211E" d="M532.6,52c0.1-1.2,0.9-1.9,1.9-2.5c1.3-0.7,2.1-1.8,3.1-2.8c0.5-0.4,0.9-1,0.5-1.7c-0.4-0.6-1-0.8-1.7-0.8
		c-1,0-1.9,0.5-2.6,1.1c-1,0.8-2.2,1.3-3.4,1.9c-0.6,0.3-1.3,0.2-1.7-0.4c-0.5-1.4,1-1.9,1.3-3.1c-4.1,1.7-6.8,6-11.8,5.6
		c-2.4-1.2-4.5-1.7-6.8,0.7c-1.3,1.4-3.7,2-5.7,2.8c-1.4,0.6-3-0.3-2.4-1.8c1-2.2,0.9-4.9,2.7-6.7c0.2-0.3,0.5-0.5,0.7-0.8
		c0.6-0.4,1.2-0.6,1.9,0c-0.1,0.5-0.6,1-0.3,1.5c0.4,0.8,1.1,0.5,1.7,0.2c2.9-1.6,6.1-2.6,8.5-5.2c1-1.1,2.3-1.9,3.7-2.5
		c1.4-0.6,2-0.2,2,1.3c0,1-0.5,1.8-0.9,2.7c-0.2,0.4-0.2,0.9,0.2,1.1c0.4,0.2,0.8,0.2,1.2-0.1c7.2-4.4,14.5-8.8,21.7-13.2
		c0.5-0.3,0.9-0.6,1.4-0.8c0.8-0.4,1.8-1.4,2.6-0.7c1,0.9-0.3,1.7-0.8,2.3c-0.6,0.7-0.6,1.3-0.2,2c0.9,1.6,0.2,2.6-1.3,3.3
		c-1.8,0.9-3.4,2.3-5,3.5c-0.8,0.6-1.5,1.2-1.5,2.3c1.1,0.1,1.8-0.6,2.6-1.1c4.1-2.6,8.3-5,13.1-6.1c2.7-0.6,4.8-2.3,7-3.8
		c0.9-0.6,1.7-1.3,2.7-1.7c0,0.9,0,1.9,1.3,2c-0.1,1.8-1.7,2-2.9,2.6c-5.1,2.4-9.9,5-14.2,8.6c-0.4,0.3-1,0.5-1.3,1
		c-3.5,6.4-11.4,5.3-16.2,9.5c-0.2,0.2-0.6,0-0.9-0.2L532.6,52z"/>
	<path fill="#B64033" d="M532.8,52.2c0.6-0.3,1.2-0.5,1.7-0.9c3-2.2,6.2-3.8,9.9-4.4c1.2-0.2,2.4-0.5,3-1.7
		c2.4-4.8,7.2-6.6,11.3-9.4c3-2,6.6-3,9.6-5.2c0,0,0,0,0,0c0.4-0.4,0.9-0.3,1.3-0.6l0,0c0.3-0.4,0.9-0.3,1.3-0.7l0,0
		c0.2-0.2,0.5-0.4,0.7-0.6c0.2,0,0.4,0,0.6,0c0.2-0.2,0.4-0.4,0.7-0.6l0,0c0.3-0.4,0.9-0.3,1.3-0.7l0,0c0.4-0.4,0.9-0.3,1.3-0.6l0,0
		c1-0.7,2.3,0.1,3.4-0.6c1,0,2,0,3,0c0.5,0.4,0.4,0.8,0,1.3c-0.9,0.7-1.9,1.4-2.8,2.1c-0.5,0.4-1.1,0.9-0.7,1.6
		c0.4,0.8,1.1,0.9,1.9,0.6c0.2-0.1,0.4-0.2,0.6-0.3c1-0.5,1.8-0.6,2.5,0.4c0.7,1.1,0,2-0.6,2.6c-1.7,1.7-3.4,3.3-5.3,4.7
		c-4.7,3.7-10,6.6-15.3,9.4c-0.4,0.2-0.8,0.4-1.2,0.5c-0.5,0.2-1.1,0.3-1.4-0.3c-0.3-0.4-0.2-0.8,0-1.2c0.8-1.6,1.8-3.2,3.1-4.5
		c0.5-0.5,1.3-1,0.5-1.9c-0.5-0.6-1.1-0.9-2-0.6c-2.7,0.8-5.1,2.2-7.4,3.8c-1.9,1.3-3.8,2.8-5.7,4.2c-1.4,1.1-3.1,1.5-4.7,2
		c-2.9,1-6.1,1.3-8.9,2.7C533.1,54,532.7,53.2,532.8,52.2z"/>
	<path fill="#B64033" d="M578.4,78.5c0.1-0.2,0.2-0.4,0.3-0.6c2.7-2.2,6.1-3,8.9-5.1c0.2-0.2,0.5-0.4,0.7-0.6
		c0.1-0.1,0.3-0.1,0.4-0.2c3.5,2.4,6.1,0.9,8.6-1.8c1-1.1,2.1-2,3.9-0.6c-3.2-3-3.2-3-6.5-0.5c-0.9,0.7-2.1,2.5-2.9-0.2
		c2.3-3.5,4.5-7,8.3-9c2.6,1.2,4.5,3.2,5.8,5.8c1,2.1,2.2,3.9,3.8,5.5c0.6,0.6,1,1.4,1.6,2c1,1.2,0.8,2.2-0.5,2.9
		c-3.1,1.6-6.4,2.6-9.9,1.3c-2.5-0.9-3-0.8-4.5,1.4c-1.5,2.3-3.3,3.8-5.9,4.6c-2.1,0.6-3.8-0.2-5.5-0.5c-0.6-0.9,0.6-1.4,0.2-2.2
		c-1.4-0.4-2.8-0.1-4.1-0.1C579.5,80.5,578.6,79.9,578.4,78.5z"/>
	<path fill="#34181E" d="M599.9,59.8c-2.6,3-5.3,6-7.9,9c-0.7,1.7-2.2,2.5-3.8,3.3c0,0,0,0,0,0c-1.7-0.3-2-2.2-3.4-2.8
		c-0.6-0.3-0.3-0.9,0.1-1.4c0.9-1.2,0.8-2.6,0.3-4.1c-2.7,0.5-4.1,2.8-6.3,3.9c-0.9-0.3-0.2-1.7-1.2-2c-0.7-0.2-1.5-0.2-2.2,0.1
		c-1.3,0.6-2-0.1-2.6-1.4c1.9-0.7,3.2-2.2,4.6-3.4c2.3-1.9,4.7-3.4,7.8-1.7c1.1,0.6,2.3,0.5,3.5,0.4c0.4,0,0.8,0.1,1.2,0.1
		c2.6,1.5,5.1,0.1,7.5-0.6C598.6,58.9,599.4,58.6,599.9,59.8z"/>
	<path fill="#341920" d="M538.5,90.3c-3.4,0-6.8-0.1-10.1-0.1c-1.7,0-3.4,0.3-4.8,1.2c-8.9,0.9-17.9,1.7-26.8,2.6
		c-1.4,0.1-2.8,0.2-4.2,0.3c-1.4-0.1-2.8-0.2-4.1,0.3c-0.4,0.1-0.8,0.3-1.2,0.2c-1.1-0.1-2.4-0.3-2.3-1.7c0.1-1.3,1.5-1,2.4-0.7
		c1.5,0.4,2.9,0.5,4.4,0.5c1.1,0,2.1-0.2,2.8-1.2c0.6-0.9,1.6-1.1,2.6-1c8.2,0.2,16.1-2.1,24.2-2.6c2.7-0.1,5.5,0,8.2-0.2
		c3.5,0,7.3,1.5,10.3-1.6c1.9-1.4,4.2-1.7,6.3-2.4c1.2-0.1,1.8-1,2.6-1.7c2-1.7,4.2-3,6.9-2.9c0.1,2.7-2.2,2.5-3.8,3.2
		c-3.6,1.6-6.7,4.1-10.1,6.1C540.8,89.1,539.7,89.7,538.5,90.3z"/>
	<path fill="#24496D" d="M538.5,69.6c-5.1,1.8-10.3,3-15.5,4c-8,1.6-15.7,4.1-23.7,5.8c-2.8,0.6-5.7,1.2-8.6,1
		c-0.5-0.8,0.1-1.3,0.6-1.8c8.1-2.4,16.4-4.1,24.7-5.9c2.4-0.5,4.7-1.6,7.1-2.1c1.7-0.4,3.5-0.3,5.1-1.2c0.4,0,0.9-0.1,1.3-0.1
		c2.1,0.2,4-0.7,5.9-1.2c1.5-0.4,3-1,4.6-1C540,68.4,539.2,69,538.5,69.6z"/>
	<path fill="#361921" d="M492.6,89c-0.6-0.2-1.3,0.1-1.8-1.1c6.2-1.6,12.4-2,18.7-2.8c0.4,0.4,0.9,0.5,1.4,0.6
		c4.9,0.1,9.8,1,14.7,0.7c-0.4,1.7-1.9,1.4-3.1,1.5c-1.5,0.1-3,0-4.4,0.5c-7.1,0.5-14.2,1.4-21.3,1.5
		C495.4,89.9,493.9,90.1,492.6,89z"/>
	<path fill="#341920" d="M549.4,86.3c1.7-0.6,2.5-2.3,3.9-3.3c1.3-1.9,3.5-2.7,5.1-4.2c0.4-0.4,1.4-0.5,0.1-1.1c0-0.3,0-0.7,0.1-1
		c0.1-0.3,0.3-0.3,0.6-0.1c1-0.5,1.9-0.9,2.9-1.4c0.5-0.2,1.1-0.6,1.5-0.2c1.7,1.6,3.3,0.7,4.8-0.3c0.2-0.1,0.4,0,0.6-0.1
		c-2.8,3.4-6.8,5.4-10.5,7.7c-2.3,1.4-4.6,2.6-6.9,4C550.7,86.9,550,87.3,549.4,86.3z"/>
	<path fill="#274769" d="M518.4,87.6c1.1-1,2.4-0.5,3.6-0.6c1.2-0.2,2.5,0.3,3.6-0.6c5.6,0.1,11-0.9,16.3-2.6c1.4-0.5,2.9-1,4.3,0
		c-1.4,2.1-3.8,1.8-5.8,2.6c-3.2,2.1-6.9,1.6-10.4,1.9c-2.8,1.1-5.7,0.4-8.5,0.5C520.6,88.2,519.2,88.6,518.4,87.6z"/>
	<path fill="#26486B" d="M558.5,77.7c0.5,0.2,1.4,0.4,0.6,1.2c-1.6,1.8-3.6,3.2-5.9,4.1c-0.2-0.6-0.8-0.6-1.2-0.7
		c1.1-1.3,3-1.5,3.8-3.2C556.3,78,557.4,77.9,558.5,77.7z"/>
	<path fill="#3A181D" d="M572.7,74.7c-0.8-0.5-1.7-0.6-2.6-0.6c0.6-2.9,3-2.3,5-3C575.5,73.4,573.5,73.6,572.7,74.7z"/>
	<path fill="#A93B2F" d="M538.4,80.5c1.3-0.5,2.4-1.4,3.9-1.4c0.6,0.2,1.3,0,1.7,0.6C541.2,81.9,540.2,82.1,538.4,80.5z"/>
	<path fill="#AB3B2F" d="M559.1,76.6c-0.2,0-0.4,0.1-0.6,0.1c-1.4-0.3-2.7,0.3-4.3,0.7C556.1,74.7,557.6,74.6,559.1,76.6z"/>
	<path fill="#72211E" d="M578.7,26.2c-1,0.9-2.2,0.5-3.4,0.6C576.3,25.7,577.5,26.3,578.7,26.2z"/>
	<path fill="#42171D" d="M599.3,45.6c-0.3,0-0.6,0-0.9-0.1c-0.2,0-0.3-0.2-0.5-0.2c0.2-0.1,0.3-0.3,0.5-0.3
		C598.7,45,599.1,45.2,599.3,45.6C599.3,45.6,599.3,45.6,599.3,45.6z"/>
	<path fill="#72211E" d="M570.8,29.4c-0.3,0.5-0.8,0.6-1.3,0.7C569.8,29.5,570.2,29.4,570.8,29.4z"/>
	<path fill="#72211E" d="M574,27.5c-0.3,0.5-0.7,0.6-1.3,0.7C573,27.6,573.5,27.5,574,27.5z"/>
	<path fill="#72211E" d="M569.5,30.1c-0.3,0.5-0.8,0.6-1.3,0.6C568.5,30.2,569,30.1,569.5,30.1z"/>
	<path fill="#72211E" d="M575.3,26.8c-0.3,0.5-0.8,0.6-1.3,0.6C574.3,26.9,574.8,26.8,575.3,26.8z"/>
	<path fill="#72211E" d="M581.7,27.5c0-0.4,0-0.8,0-1.3C582.5,26.6,582.4,27,581.7,27.5z"/>
	<path fill="#72211E" d="M568.8,27.5c0.3-0.5,0.8-0.6,1.3-0.7C569.9,27.3,569.4,27.5,568.8,27.5z"/>
	<path fill="#72211E" d="M571.5,28.8c-0.2,0.2-0.5,0.4-0.7,0.6C571,29.2,571.3,29,571.5,28.8z"/>
	<path fill="#72211E" d="M572.7,28.1c-0.2,0.2-0.4,0.4-0.7,0.6C572.3,28.5,572.5,28.3,572.7,28.1z"/>
	<path fill="#72211E" d="M566.9,28.8c0.2-0.2,0.4-0.4,0.6-0.6C567.3,28.3,567.1,28.6,566.9,28.8z"/>
	<path fill="#72211E" d="M568.1,28.1c0.2-0.2,0.5-0.4,0.7-0.6C568.6,27.7,568.4,27.9,568.1,28.1z"/>
	<path fill="#34181E" d="M506.1,44.4c0.2,1.7-1.5,3.1-0.7,4.9c0.1,0.2-0.2,0.6-0.4,0.8c-0.4,0.6-1.9,0.8-1,1.9
		c0.9,1.1,1.8,0.2,2.5-0.3c1.2-0.8,2.3-1.6,3.7-1.7c0.8-0.1,1.2-0.7,1.7-1.3c1.8-2.3,1.8-2.2,4.5-0.9c0.7,0.3,1.3,0.7,2,1
		c-1,2.8-4,3.2-5.9,5c-0.4,0.4-1.8,0.4-0.6,1.4c-0.8,1-2.3,0.4-3.1,1.3c-2.8,0.1-5.4,0.8-7.7,2.5c-2.7,1.8-5.7,3-8.8,3.8
		c-4.7,1.1-7.9,4.6-11.8,7.1c-1.5,0.9-2.7,2.6-4.8,2.1c-1-0.6-0.6-1.6-0.6-2.4c7.9-6.1,14.9-13.1,22.7-19.3
		C500.5,48.2,503,45.8,506.1,44.4z"/>
	<path fill="#4888BC" d="M475.8,72.1c3.4-1.8,6.5-4.2,9.5-6.6c1.7-1.4,3.5-2.5,5.6-3c3.5-0.9,6.9-2.2,10.1-4
		c0.7-0.2,1.6-0.6,1.9,0.3c0.4,1.1-0.9,1.5-1.3,2.3c-2.1,1.4-4.2,2.7-6.3,4.1c-4.3,4-9.8,6-14.7,9c-1.9,1.1-3.6,2.2-5,4
		c-0.3,0.2-0.5,0.4-0.9,0.5c-1.2,0.3-2.3,0.3-3.5,0.2c-0.7-0.1-1.4-0.2-1.8-0.9C470.8,75.1,473.8,74.2,475.8,72.1z"/>
	<path fill="#4788BC" d="M503.4,69.3c-6.8,3.3-13.7,6.6-20.5,9.9c-2.3,0.7-4.6,1.4-7,2.1c-1.6,0.5-3.2,1-4.8-0.2
		c0.2-0.6,0.6-1,1.1-1.3c1-0.6,2-1.1,2.8-1.9l0,0c4.3-2.2,8.7-4.2,13-6.5c2.7-1.4,5.7-0.8,8.4-1.9c1.2-0.2,2.2-0.8,3.2-1.3
		c0.8-0.4,1.6-0.6,2.5-0.5C503.1,67.7,504.2,67.9,503.4,69.3z"/>
	<path fill="#4786BA" d="M518.4,87.6c1.1,0.2,2.4,0.2,3.1,1.2c-5.8,1-11.6,1.4-17.4,2.5c-3.1,0.6-6.4,0.2-9.6,0.3
		c-1.5-0.1-3.1-0.2-4.7-0.3c0.1-1.9,2-1.4,2.7-2.4C501.2,89.1,509.8,87.7,518.4,87.6z"/>
	<path fill="#331921" d="M472.4,80.4c-0.4,0.2-0.8,0.5-1.2,0.7c-0.8,0.4-1.5,0.9-2.3,1.1c-1.7,0.5-3.1,1.3-4.2,2.8
		c-0.9,1.3-2.2,1.6-3.7,0.7c-1.3-0.7-2.6-1.5-4.3-1.6c0.4-1.2,1.3-1.3,2.1-1.1c3.9,0.8,6.6-0.9,8.8-3.8c0.5-0.6,1.1-1,1.7-1.5
		c0.6,0,1.2,0.1,1.9,0.1C472.1,78.5,473,79.1,472.4,80.4z"/>
	<path fill="#4683B5" d="M491.2,78.7c-0.2,0.6-0.4,1.2-0.6,1.8c-1.2,0.7-2.5,1.2-3.8,1.5c-1.6-0.4-3.2,1.2-5,0.2
		c0.1-1.5,1.9-0.6,2.3-1.5C486.6,80.1,488.6,78.3,491.2,78.7z"/>
	<path fill="#4687BB" d="M492.3,105.7c0.6,0.1,1.5-0.1,1.5,1c0.1,1-1.4,2.5-2.6,2.5c-1.3,0-1.2-1-1.2-1.8
		C489.9,105.8,490.9,105.6,492.3,105.7z"/>
	<path fill="#4381B3" d="M486.4,106.3c-0.9-0.2-1-0.8-0.9-1.5c0.1-1.1,0.8-1.7,2-1.5c0.7,0.1,1.3,0.6,1,1.3
		C488.1,105.5,487.4,106.2,486.4,106.3z"/>
	<path fill="#321B24" d="M484.5,89.4c-0.4,1-1.2,1.3-2,1.3c-0.7,0.1-1.3-0.3-1.4-1c0-0.9,0.8-0.8,1.4-0.9
		C483.2,88.8,484,88.8,484.5,89.4z"/>
	<path fill="#34222F" d="M462.3,75.4c-0.1,0.5-0.4,0.9-0.8,1.2c-1.1,0.1-1.7-1-2.6-1.3c0.3-0.6,0.8-1,1.4-1.3
		C461.3,73.9,462.3,73.9,462.3,75.4z"/>
	<path fill="#3971A0" d="M505.8,117.7c-0.1,0-0.1,0.1-0.2,0.1c-0.3,0-0.3-0.1-0.2-0.3c0-0.1,0.2-0.1,0.3,0
		C505.7,117.5,505.7,117.6,505.8,117.7z"/>
	<path fill="#72211E" d="M497.2,32.1c0.2-1.2,0.9-2.1,1.9-2.8c3.2-2.3,6.6-4,10.2-5.4c0.8-0.3,1.7-0.7,2.3,0.2
		c0.5,0.8,0.2,1.7-0.4,2.4c-0.8,0.9-1.6,1.7-2.7,2.3c-1,0.7-2.2,1.3-2.3,2.7c0.8,0.6,1.3-0.1,1.9-0.1c0.9-0.1,1.9,0,2.1,1
		c0.5,2,1.6,1.4,2.9,0.9c2.3-0.9,4.7-2,7.4-0.2c-2.3,2.3-4.9,4.2-7.5,6c-0.6-0.5-0.8-1.2-1.1-1.9c-0.5-1-1.2-0.8-1.8-0.2
		c-1.3,1.1-3.1,1.6-4.3,2.8c-2.9,2.8-5.8,0.5-8.6,0.1c-1.2-0.2-1-1.5-0.5-2.4c0.6-1,1.6-1.7,1.9-2.9C499.5,33,498,32.8,497.2,32.1z"
		/>
	<path fill="#722220" d="M480.2,40.4c0.5-1.4,1.4-2.6,2.5-3.5c1.5-1.3,3-2.5,4.5-3.8c0.1,0.7,0.4,1.5,1.1,0.8c1.9-1.9,3.6-0.8,5.4,0
		c-0.5,2.2-3.1,3-3.6,5.2c-0.2,0.2-0.5,0.4-0.7,0.6c-2.5,1.3-4.8,3.4-7.9,2C481,41.5,480.1,41.4,480.2,40.4z"/>
	<path fill="#25486B" d="M497.2,32.1c0.4,0,0.9-0.1,1.3,0c1.8,0.3,1.8,0.4,1.2,2.6c-2.6,3.1-5.5,5.8-8.8,8.3
		c-1.7,1.3-3.2,2.8-4.2,4.7c-0.5,0.9-1.1,1.9-2.5,1.2c0-0.7-0.1-1.3-0.1-2c0,0,0,0,0,0c-0.5,0.2-0.9,0.3-1.4,0.5
		c-0.6-1.4,0.5-2.2,1.2-3c1.8-1.9,4-3.5,6-5.3l0,0c1.7-2.5,4.7-3.6,6.5-6C496.7,32.7,497,32.4,497.2,32.1z"/>
	<path fill="#29486A" d="M512.7,37.1c0.6,0.6,0.6,1.3,0.6,2.1c-1.7,1.3-3.2,2.8-4.6,4.4c-0.6,0-1.2,0-1.9,0c0.1-0.9,2.1-1.5,0.5-2.7
		C508,38.1,510,37.1,512.7,37.1z"/>
	<path fill="#381920" d="M496.4,33.1c0.1,1-0.3,1.7-1,2.2c-1.8,1.3-3.3,3-5.5,3.8c0-2.7,2.4-3.6,3.9-5.1
		C494.7,33.7,495.6,33.4,496.4,33.1z"/>
	<path fill="#FFFFFF" d="M601.6,225.2c-8.3-0.4-16.7,0-25.1,0c-3,0-6-0.2-9,0.2c-0.4,0.2-0.8,0.3-1.2,0.3
		c-37.8,0.5-75.6,0.4-113.3,0.3c-9.9,0-19.8-0.2-29.7-0.3c-0.6,0-1.3,0.1-1.9-0.3c-0.5-0.1-1.1-0.2-1.6-0.2
		c-10.2,0-20.4-0.1-30.5-0.1c-0.6,0-1.3,0.1-1.9,0.1c-6.3-0.5-12.6-0.1-19-0.2c-6.2-0.1-12.4,0.2-18.7-0.2
		c-12.5-0.2-25-0.3-37.6-0.1c-6.7-0.2-13.3-0.4-20-0.5c-4.8-0.1-9.7,0-14.6,0c0.3-3.9,1.6-7.4,1.7-11c0.4-0.9,0.3-1.8,0.2-2.7
		c-0.2-0.4-0.2-0.9-0.1-1.4c0.2-0.9,0.3-1.8,0.3-2.7c0-0.8,0.1-1.6,0.3-2.3c0.3-0.9,0.4-1.8,0.4-2.8c0-0.8,0.1-1.6,0.3-2.4
		c0.4-1.1,0.4-2.2,0.4-3.3c0-0.5,0-1,0-1.5c0-0.9,0.1-1.7,0.3-2.6c0.6-1.9,0.3-3.9,0.3-5.8c0-1.5,0-3,0-4.5c0-3.9,0-7.8,0-11.6
		c0-0.9,0-1.9,0-2.8c0-0.5,0-1.1,0-1.6c0-1.9,0.2-3.9-0.4-5.8c-0.2-1.2-0.4-2.5,0.2-3.7c0.1-1.4,0.3-2.8-0.1-4.2
		c0-1.6-0.1-3.1-0.1-4.7c-0.5-1.1,0.1-2.5-0.5-3.6c-1-5.4-2-10.7-3-16.1c0.6-0.9,1.4-0.6,2.1-0.6c17.4-0.1,34.9-0.3,52.3-0.4
		c20.8-0.2,41.5-0.3,62.3-0.5c1-0.4,2.1-0.2,3.2-0.2c64.7,0,129.4,0,194.1,0c1.1,0,2.2-0.2,3.2,0.2c4.7,0,9.5,0,14.2,0
		c5.2,0.1,10.3,0.1,15.5,0.2c28.3,0.2,56.6,0.5,85,0.7c0.6,0,1.3-0.2,2,0.4c-0.6,4.7-2,9.3-2.3,14.2c-0.4,0.8-0.2,1.7-0.3,2.6
		c0,0.3,0.1,0.6,0.1,0.9c0.1,0.4,0.1,0.9,0,1.3c-0.3,1-0.3,2.1-0.3,3.2c0,0.8-0.1,1.6-0.3,2.4c-0.2,0.8-0.5,1.6-0.7,2.4
		c-0.5,1.7-0.2,3.4-0.3,5.1c0,1.7,0,3.3,0,5c0,1.4,0,2.7,0,4c0,5,0,9.9,0,14.9c0,1.1,0,2.3,0,3.4c0,1.8-0.2,3.6,0.4,5.4
		c0.3,1.2,0.2,2.5,0.3,3.7c0,1.3-0.1,2.7,0.3,4c0.2,0.8,0.3,1.6,0.3,2.4c0,0.9,0,1.9,0.3,2.8c0.2,0.6,0.2,1.2,0.3,1.9
		c0,0.9,0.1,1.8,0.4,2.7c0.1,0.6,0.1,1.2-0.1,1.8c0,0.9-0.3,1.9,0.2,2.7c0.1,3.4,1.4,6.7,1.6,10.4c-4.9,0-9.7-0.1-14.6,0
		c-6.7,0.1-13.3,0.3-20,0.5c-9.1,0-18.2,0-27.3,0c-3.4,0-6.8,0.1-10.3,0.1c-11.3,0.4-22.6,0.1-33.8,0.2
		C604.1,225,602.8,224.8,601.6,225.2z"/>
	<path fill="#FFFFFF" d="M278.6,210.4c-0.2,1.1-0.5,2.2-2,1.9c-0.4-0.1-0.9,0-1.3,0c-25,0-50,0-75,0c-0.5,0-1.1,0-1.6,0
		c-0.3-1.2,0.6-1.6,1.2-2.2c9.8-10.9,19.6-21.8,29.4-32.6c2.3-2.6,2.3-2.6,0.1-5c-9.7-10.5-19.4-21.1-29.1-31.6
		c-0.6-0.7-1.5-1.2-1.7-2.3c0.8-0.7,1.7-0.3,2.5-0.3c24.7,0,49.3,0,74,0c3.1,0,3.1,0,3.5,3c0.4,3,0.9,6,1.3,8.9
		c0.6,1.3-0.1,2.7,0.5,4c0,0.4,0.1,0.8,0.1,1.2c0.5,0.6,0.6,1.3,0.6,2c-0.1,1.6,0.3,3.2,0.6,4.8c0.1,1.7,0,3.4,0,5.1
		c0,5.4,0,10.8,0,16.1c0,1.5,0,3.1-0.1,4.6c-0.3,1.8-0.6,3.5-0.6,5.4c0,1,0,2.1-0.1,3.1c-0.3,1.3-0.7,2.6-0.6,4c0,0.7,0,1.3-0.1,2
		c-0.5,1.1-0.6,2.2-0.6,3.3c0,0.6,0,1.3-0.1,1.9C279.3,208.6,279.3,209.7,278.6,210.4z"/>
	<path fill="#72211E" d="M537.8,112.3c3.2-0.8,6.4-1.5,9.6-2.3c0.9-0.2,1.9-0.4,2.8-0.3c0.6,1.3,1.6,2.1,3.1,1.7
		c4-1.2,7.9,0,11.8,0.3c1.5,0.1,2.9,0.8,4.4,1c1.6,0.2,2.7,0.6,2.3,2.5c-0.1,0.3,0.4,0.7,0.6,1.1c-1.9,1.5-4.2-0.3-6.2,0.7
		c0.8,1,1.9,1,2.9,1c1.2,0,2.4,0,3.5,0c4.6-0.2,9.2,0.1,13.5,2.2c2.9,1.4,6.1,1.7,9.4,1.8c3.9,0.1,7.8,1.1,11.5,2.4
		c-9.3,0-18.5,0-27.8,0c-0.2-0.3-0.2-0.6,0.1-0.9c0.7-0.4,1.4-0.4,2.1-0.2c-6.1-1.2-12.1-3.2-18.2-4.7c-0.7-0.2-1.4-0.6-1.8-1.3
		c-0.3-0.9,0-1.6,0.7-2.2c0.9-0.7,2-0.5,2.8-0.8c-3.2,0.1-6.6-1.7-9.9,0c-4.7-0.1-9.4,0-14.1-0.1c-1.1,0-2.2,0-3.1-0.5
		C536.9,113.4,536.9,112.8,537.8,112.3z"/>
	<path fill="#394747" d="M594.7,125.6c-5.3,0-10.5,0.1-15.8,0.1c-10.9,0-21.7-0.1-32.6-0.1c-24.5,0-49.1-0.1-73.6-0.1
		c-25,0-49.9,0.1-74.9,0.2c-1.2,0-2.4-0.1-3.5-0.1c0.9-0.8,2-0.5,3.1-0.5c59.5,0,119-0.1,178.5-0.1c5.3,0,10.5,0,15.8,0.1
		C592.7,125.1,593.8,124.8,594.7,125.6z"/>
	<path fill="#090A0A" d="M554,123.8c-0.5-0.2-0.9-0.4-1.4-0.6c-2.8,0.2-5.3-1-8-1.5c-1.3-0.6-3.7-0.6-3.4-2.2
		c0.3-1.9,2.7-1.8,4.4-1.8c4.2,0.1,8.2,1.4,12.3,1.9c1.9-0.3,3.9-0.2,5.8,0.3c0.3,0.1,0.6,0.2,0.9,0.3c1.6,1.2,4.3,1.1,5,3.6
		C564.3,123.8,559.2,123.8,554,123.8z"/>
	<path fill="#6E1E1C" d="M569.5,123.8c-1.5-1.5-3.8-1.6-5.3-3.1c0.4-0.4,0.9-0.7,1.4-0.6c4.6,0.9,9.5,1,13.5,3.9c0,0.2,0,0.3,0,0.5
		C576,124.2,572.7,124.9,569.5,123.8z"/>
	<path fill="#181717" d="M280.6,157.4c-0.2-0.6-0.2-1.3-0.1-1.9c0.2,0,0.4,0,0.6,0c0.2-0.3,0.4-0.3,0.5,0c0.1,1.2,0.1,2.4,0.2,3.6
		c0.4,1.8,0.1,3.6,0.2,5.4c0.1,0.7-0.2,1.4,0.3,2c0.2,0.9,0.2,1.7,0,2.6c-0.2,0.2-0.5,0.2-0.7,0.1c-0.4-0.6,0-1.4-0.4-2
		c-0.1-1.6-0.1-3.2-0.2-4.9C280.5,160.7,281.2,159,280.6,157.4z"/>
	<path fill="#373636" d="M281.7,155.5c-0.2,0-0.4,0-0.5,0c0.1-1.3-0.3-2.7,0.1-4C281.9,152.8,281.9,154.1,281.7,155.5z"/>
	<path fill="#373636" d="M280.4,154.3c-0.6-1.3-0.6-2.6-0.5-4C280.9,151.5,280.7,152.9,280.4,154.3z"/>
	<path fill="#FFFFFF" d="M280.6,143.2c1.1,1.1,0.4,2.4,0.5,3.6C280.4,145.7,280.5,144.4,280.6,143.2z"/>
	<path fill="#1F2020" d="M278.6,210.4c-0.1-1-0.1-2,0.5-2.9c0.9,0.7,0.4,1.6,0.4,2.4c-0.1,0.1-0.2,0.3-0.3,0.4
		C279,210.4,278.8,210.4,278.6,210.4z"/>
	<path fill="#1F2020" d="M279.8,210.4c0.1,1,0.1,1.9-0.5,2.7c0-0.9,0-1.8-0.1-2.7c0,0,0,0,0,0C279.4,210.1,279.6,210.1,279.8,210.4z
		"/>
	<path fill="#FFFFFF" d="M709.7,144.5c0-0.4,0.1-0.8,0.1-1.2c0.6-1-0.1-2.3,0.5-3.3c0.2-0.9,0.4-1.7,1.6-1.7c0.5,0,1.1,0,1.6,0
		c25,0,50,0,75,0c0.5,0,1,0,1.6,0c-0.2,0.5,0,0,0.1,0.4c0,0.1,0,0.2-0.1,0.3c-10.9,11.9-21.8,23.8-32.9,36
		c11.1,12.3,22.1,24.5,33.1,36.8c-0.7,0.8-1.4,0.5-2,0.5c-25,0-50,0-75,0c-1.2,0-2.7,0.7-3.2-1.2c-0.2-0.2-0.4-0.5-0.5-0.8
		c-0.1-0.9-0.3-1.8-0.7-2.7c-0.1-0.6-0.1-1.3-0.1-1.9c0.2-1-0.5-1.9-0.6-2.9c0.2-2.9-0.9-5.7-0.7-8.6c0.1-1.9-0.3-3.8-0.6-5.6
		c-0.1-7.4,0-14.9,0-22.3c0-1.5,0-3,0-4.5c0.3-1.4,0.5-2.7,0.4-4.1c0-0.3,0-0.7,0-1c0-1,0-2,0.3-3c0.3-1.1,0.7-2.1,0.6-3.3
		c0-0.5,0-1,0-1.4c0-0.5,0-1,0.1-1.4C709.1,146.6,709,145.4,709.7,144.5z"/>
	<path fill="#1A1A1A" d="M707.8,165.8c0,7.6,0.1,15.3,0.1,22.9c0.6,1.8-0.2,3.7,0.5,5.5c0.3,2.9,0.9,5.8,0.8,8.7
		c0.3,0.9-0.1,2,0.5,2.9c0.1,0.6,0.1,1.1,0.2,1.7c0.4,0.9-0.1,2,0.5,2.8c0,0.2,0,0.4,0,0.7c0,0-0.3,0-0.3,0l-0.3,0
		c-0.2,0.3-0.4,0.3-0.6,0c-0.1-0.5-0.1-1.1-0.2-1.6c-0.4-0.9,0.1-2-0.5-2.9c-0.1-0.5-0.1-1.1-0.2-1.6c-0.4-0.9,0-2-0.4-2.9
		c-0.1-0.8-0.1-1.6-0.2-2.3c-0.5-1.3,0.1-2.8-0.5-4.1c-0.2-1.2-0.4-2.3-0.2-3.5c-0.6-1.8,0.1-3.7-0.5-5.6c-0.2-1.1-0.3-2.2,0-3.3
		c0.6-5,0.1-10.1,0.3-15.1C707.1,167.3,706.3,166.1,707.8,165.8z"/>
	<path fill="#2F3030" d="M710.4,139.9c0.1,1.2,0,2.3-0.5,3.3C709.7,142.1,709.5,140.9,710.4,139.9z"/>
	<path fill="#2B2C2B" d="M709.7,144.5c0.1,1.2,0.1,2.3-0.5,3.4c-1.1-0.8-0.3-1.9-0.4-2.9c0.1-0.1,0.2-0.3,0.3-0.4
		C709.3,144.5,709.5,144.5,709.7,144.5z"/>
	<path fill="#2D2E2D" d="M709.2,211.1c0.2,0,0.4,0,0.6,0c0,0.9,0,1.8,0,2.7C709.2,212.9,709.1,212,709.2,211.1z"/>
	<path fill="#2F3030" d="M708.5,143.8c-0.1-1-0.1-1.9,0.5-2.7c0.3,0.9,0.1,1.8,0,2.7C708.9,144.1,708.7,144.1,708.5,143.8z"/>
	<path fill="#2B2C2B" d="M708.5,143.8c0.2,0,0.3,0,0.5,0c0,0.2,0,0.4,0.1,0.7c0,0,0,0,0,0c-0.2,0.3-0.4,0.3-0.6,0
		C708.5,144.3,708.5,144.1,708.5,143.8z"/>
	<path fill="#B23E32" d="M614,87.9c-2.6,4.2-6.5,5.1-13.5,3.3C601.9,89.8,611,87.5,614,87.9z"/>
	<path fill="#39181E" d="M609.5,59.8c0,0.4,0.1,0.8,0.1,1.2c-2.2,0.9-5.8,0-7.2-1.7c-0.4-0.5-0.7-1.1-0.3-1.7c0.4-0.5,1-0.5,1.5-0.3
		C605.6,58.1,607.7,58.6,609.5,59.8z"/>
	<path fill="#4788BC" d="M348.4,97.4c0.2-0.1,0.4-0.1,0.6-0.2c1.1,0.1,2.1,0.2,3.1,0.6c4,1.8,5.3,5.8,3.1,9.6
		c-0.4,0.8-1.1,1-1.9,0.9c-0.7-0.1-1.1-0.6-1.1-1.3c0-1.7-0.9-3-1.9-4.3C349.2,101.1,348,99.5,348.4,97.4z"/>
	<path fill="#311C27" d="M560.9,86.6c-1.2,1.2-2.4,1.7-3.7,2.2c-0.4,0.2-0.9,0-1.1-0.4c-0.2-0.4,0.1-0.8,0.5-1.1
		C557.9,86.5,559.1,85.9,560.9,86.6z"/>
	<path fill="#234A6E" d="M558.5,120.4c-3.3,0-6.5-0.9-9.7-1.5c-2.4-0.4-4.8-0.5-7.2,0.5c1,1,2.4,0.9,3.5,1.5c-0.1,1.3-0.9,2-2.1,2.2
		c-3.5,0.9-7.2,0.6-10.8,0.6c-5.2,0-10.4,0-15.6,0c-0.9-1.5-0.4-2.6,0.8-3.6c1.9-1.7,4.2-1.9,6.5-2.1c1.7-0.2,3.4,0,5.1-0.1
		c1.5-0.1,2.8-0.6,2.5-2.5c1.5-1.3,3.2-0.9,4.9-0.7c5.7,0.6,11.5,1.4,17.2,1.8c1.5,0.2,2.8,0.9,4,1.7
		C558.2,118.7,559.2,119.2,558.5,120.4z"/>
	<path fill="#36191F" d="M554,117.4c-4.1,0.1-8.1-0.8-12.1-1.1c-3.5-0.3-7-1.1-10.5-0.9c0,0,0,0,0,0c-0.6-0.6-1.4-0.3-2.1-0.3
		c-1-0.1-1.8-0.3-1.1-1.5c1.4-0.3,2.9-0.5,4.3-0.9c1.8-0.5,3.5-0.6,5.3-0.3c-0.5,1.1,0.2,1.2,1,1.2c4.5,0,8.9,0,13.4,0
		c1.3,0,2.5,0,3.7,0.6c1.2-0.9,2.4-0.1,3.6,0.1c0.9,0.3,1.8,0.4,2.6,0.9c0.1,0.1,0.2,0.2,0.3,0.3c-0.2,0.6-0.4,1.2-0.7,1.9
		c-0.2,0.3-0.4,0.4-0.7,0.6c-0.4,0.1-0.9,0.2-1.4,0.1c-1.4-0.2-2.5-1.1-3.9-1.4C554.9,116.5,554.2,116.3,554,117.4z"/>
	<path fill="#264C71" d="M528.2,113.5c0,1,0.7,1.2,1.5,1.2c0.6,0,1.3,0,1.7,0.7c-4.4,0.3-8.7,0.6-12.9,1.9c-0.5,0.2-1,0.5-1.5-0.1
		c-0.6-0.7-0.1-1.2,0.3-1.7c1.2-1.4,2.6-2.2,4.5-2.1C523.9,113.5,526,113.5,528.2,113.5z"/>
	<path fill="#346A96" d="M527.5,91.5c0.3-0.4,0.6-0.6,1.1-0.6c0.5,0,1,0,1.9,0c-1,1.2-1.9,1.3-3,1.2
		C527.4,91.8,527.5,91.7,527.5,91.5z"/>
	<path fill="#4786BA" d="M474.5,29.5c-0.5-0.1-1-0.1-1.7-0.2c1.3-2.6,4.1-3,5.6-5c1.9-0.6,3.9-1.1,5.8-1.7c1-0.3,2.1-0.5,2.7-1.6
		c0.8,0.4,1.3,1,1.1,1.9c-2,1.3-4.6,1.5-6.3,3.3C479,26.8,477,28.9,474.5,29.5z"/>
	<path fill="#010101" d="M447.3,226.5c0-0.2,0-0.4,0-0.5c0.9-0.6,1.9-0.3,2.8-0.3c29.6,0,59.1,0,88.7,0c0.9,0,1.9-0.2,2.8,0.3
		c0,0.2,0,0.3,0,0.5c-0.8,0-1.5,0.1-2.3,0.1c-30,0-59.9,0-89.9,0C448.8,226.6,448.1,226.5,447.3,226.5z"/>
	<path fill="#220D0D" d="M541.7,225.9c-31.4,0-62.9,0-94.3,0c-8.6,0-17.2,0-25.9-0.1c0-0.2,0-0.4,0-0.6c3.2,0,6.4-0.1,9.7-0.1
		c44.1,0,88.2,0,132.3,0c1.2,0,2.4,0.1,3.5,0.1c0.2,0.1,0.2,0.3,0.2,0.4c-0.1,0.1-0.1,0.2-0.2,0.2
		C558.5,225.9,550.1,225.9,541.7,225.9z"/>
	<path fill="#1A1515" d="M349.7,224.8c12.1,0,24.3,0.1,36.4,0.1c0.4,0,0.8,0.2,1.2,0.3c-7.9,0.4-15.7,0.1-23.6,0.1
		c-3.7,0-7.3,0-11,0C351.8,225.3,350.7,225.6,349.7,224.8z"/>
	<path fill="#1A1616" d="M601.6,225.2c0.3-0.1,0.6-0.3,0.9-0.3c12.3,0,24.5-0.1,36.8-0.1c-0.6,0.6-1.4,0.5-2.1,0.5
		c-11.3,0-22.7,0-34,0C602.6,225.3,602.1,225.2,601.6,225.2z"/>
	<path fill="#220D0D" d="M566.9,225.9c0-0.2,0-0.4,0-0.6c0.2,0,0.4,0,0.7,0c0,0.2,0,0.4,0,0.6C567.3,225.9,567.1,225.9,566.9,225.9z
		"/>
	<path fill="#FFF5F3" d="M531.2,242.2c-1.1-0.1-1.5-0.8-1.4-1.7c0.1-0.9,0.5-1.6,1.6-1.5c1,0.1,1.5,0.8,1.5,1.7
		C532.8,241.6,532.3,242.2,531.2,242.2z"/>
	<path fill="#FEEBE4" d="M498.2,241.7c-1,0-1.5-0.5-1.6-1.3c-0.1-0.9,0.4-1.5,1.3-1.5c0.9-0.1,1.4,0.4,1.5,1.3
		C499.5,241,498.9,241.5,498.2,241.7z"/>
	<path fill="#F6B097" d="M499.1,244c-0.3,0-0.5-0.1-0.8-0.1c0.2-0.4,0.6-0.6,1-0.3C499.5,243.7,499.3,244,499.1,244z"/>
	<path fill="#FEF0EC" d="M559.3,238.9c0.9,0.2,1.5,0.8,1.4,1.8c-0.1,1-0.7,1.5-1.7,1.4c-1-0.1-1.6-0.7-1.4-1.7
		C557.6,239.5,558.3,239,559.3,238.9z"/>
	<path fill="#FFF5F2" d="M581.9,240.8c-0.1,0.8-0.5,1.4-1.4,1.3c-1.1-0.1-1.4-0.8-1.3-1.7c0.1-0.8,0.6-1.4,1.4-1.4
		C581.6,239.1,581.9,239.9,581.9,240.8z"/>
	<path fill="#FFF5F2" d="M478.4,242.2c-0.9-0.1-1.4-0.6-1.4-1.5c0-0.9,0.4-1.7,1.4-1.7c1,0,1.4,0.9,1.3,1.8
		C479.7,241.7,479.2,242.2,478.4,242.2z"/>
	<path fill="#FBECE6" d="M522.9,239.3c-0.2,0.6-0.7,0.7-1.2,0.7c-0.4,0-0.9-0.1-0.9-0.7c0-0.6,0.4-1,1-1
		C522.4,238.3,522.7,238.7,522.9,239.3z"/>
	<path fill="#FBE9E2" d="M430.3,239.1c0,0.7-0.5,0.8-1,0.9c-0.5,0.1-1.1,0.1-1.1-0.6c0-0.5,0.4-0.9,1-1
		C429.7,238.3,430,238.7,430.3,239.1z"/>
	<path fill="#4280B0" d="M429.3,111.1c-0.1,1-0.1,1.9-1.3,2c-0.7,0-0.7-0.7-0.7-1.2c0-0.9,0.1-1.9,1.1-2.1
		C429.3,109.7,429.2,110.6,429.3,111.1z"/>
	<path fill="#34181E" d="M512.7,37.1c-1.9,1-4,1.8-5.3,3.8c-6.8,4-12.8,9-19,13.7c-4.5,3.5-9,6.9-13.9,9.8c-1.1,0-1.1-0.6-0.7-1.4
		c1.8-2.1,3.7-4.2,5.5-6.3c2.1-2.4,3.6-5.1,5-7.9c0.5-0.1,1.1-0.1,1.4-0.7c2-4.1,5.6-6.6,9.1-9.2c0.9-0.6,1.8-1.2,2.2-2.3
		c0.5-1.2,1.6-1.6,2.7-2c-0.2,1.2-0.8,2.2-1.8,2.9c-0.6,0.4-0.9,1-0.6,1.7c0.3,0.6,0.9,0.3,1.4,0.1c0.9-0.3,1.7-0.4,2.3,0.5
		c0.9,1.5,2,1.1,3,0.3c2.1-1.6,4.8-2.3,6.7-4.4c0.6-0.7,1.6-0.9,2.3-0.2C513.3,36,512.8,36.6,512.7,37.1z"/>
	<path fill="#34181F" d="M489.9,39.1c-0.6,1.4-1.5,2.5-2.7,3.4c-1.8,1.3-3.6,2.7-4.5,4.9c-3.9,4.3-7.7,8.7-12.2,12.5
		c-1.4,0.5-1.8-0.2-1.5-1.4c2.5-5.2,5.4-10.1,7.7-15.4c0.6-1.4,1.8-2.3,3.4-2.7c2.4,1.3,4.8,1.7,7.1-0.4
		C488.1,39.3,489,39,489.9,39.1z"/>
	<path fill="#244D72" d="M469.1,58.4c0.2,0.8,0.6,1.4,1.5,1.4c-2.2,3.8-5.4,6.6-9.2,8.7C463,64.4,466,61.4,469.1,58.4z"/>
	<path fill="#2A547A" d="M473.8,63c0,0.6,0.2,1.1,0.7,1.4c-1.8,2.1-1.8,2.1-4.3,3C470.8,65.2,472.3,64.2,473.8,63z"/>
	<path fill="#2A4E73" d="M462.3,75.4c-0.5-0.7-1.3-1-2.1-1.4c0.3-0.2,0.6-0.5,1-0.7c0.9-0.4,2.1-1.1,2.7,0.2
		C464.4,74.7,462.9,74.8,462.3,75.4z"/>
	<path fill="#305B83" d="M466.9,70.1c0.1-0.1,0.3-0.3,0.4-0.3c0.4,0,0.5,0.3,0.4,0.6c-0.1,0.1-0.4,0.2-0.5,0.2
		C467.1,70.5,467,70.3,466.9,70.1z"/>
	<path fill="#396C98" d="M465.9,72.2c-0.1,0-0.2,0.1-0.2,0c-0.1,0-0.1-0.2-0.1-0.2c0.1-0.2,0.2-0.3,0.3-0.1
		C465.9,72,465.9,72.1,465.9,72.2z"/>
	<path fill="#6095C3" d="M386.5,81.7c-0.5,0.1-1,0.1-1.5,0.3c-0.6,0.1-1.2,0.5-1.6-0.3c-0.2-0.4-0.1-0.8,0.2-1.2
		c0.4-0.5,1-0.8,1.7-0.6C386.2,80.1,386.6,80.8,386.5,81.7C386.5,81.8,386.5,81.7,386.5,81.7z"/>
	<path fill="#A53A2F" d="M542.8,123.2c0.6-0.9,1.3-1.6,2.1-2.2c2.6,0.6,5.2,1.2,7.6,2.2c-0.4,0.9-1.1,0.7-1.7,0.6
		c-0.5-0.3-1-0.4-1.4,0C547.2,123.7,544.9,124.5,542.8,123.2z"/>
	<path fill="#A45961" d="M549.4,123.8c0.5-0.7,1-0.6,1.4,0C550.4,123.8,549.9,123.8,549.4,123.8z"/>
	<path fill="#244B6F" d="M496.4,69.5c-0.5,0.9-1.3,1.3-2.4,1.3c-2.6,0.1-5,1-7.3,2.2c-2.7,1.4-5.4,2.7-8,4c-1.2,0.6-2.4,1-3.7,0.9
		c0.6-1.5,1.6-2.7,3.1-3.5c5.7-3.1,11.4-6.2,17.1-9.3c-0.2,0.4-0.3,0.8-0.5,1.2c-0.5,0.9-2,1.4-1.3,2.6
		C494.1,70,495.4,69.3,496.4,69.5z"/>
	<path fill="#24496C" d="M512,55.3c-0.5-0.1-1.1,0.1-1.7-0.4c2.3-2.6,5.6-3.7,8.1-6c2.3-0.2,4.3-1.2,6.1-2.6
		c1.8-1.4,3.7-2.5,5.6-3.7c0.5-0.3,1.1-0.4,1.5,0.1c0.4,0.5,0,1-0.4,1.4c-0.9,0.9-2,1.6-2.6,2.8C523,49.4,517.6,52.6,512,55.3z"/>
	<path fill="#254769" d="M503.4,69.3c0-0.8-0.4-1.2-1.2-1.2c-0.9,0-1.7,0-2.6,0c3.2-2.3,6.9-2.5,10.7-3.1c-0.1,1.8-1.3,2.4-2.4,2.8
		C506.5,68.5,504.9,68.9,503.4,69.3z"/>
	<path fill="#24496C" d="M501.5,61c0.1-0.3,0.1-0.7,0.3-0.9c1.2-1.4,0.4-1.6-0.9-1.7c1.3-1.2,2.7-2,4.4-2.3c1.2-0.2,2.5-0.7,3.5,0.5
		C507.1,59.1,504.2,59.9,501.5,61z"/>
	<path fill="#602426" d="M528.1,69.5c-1.4,1.7-3.3,1.3-5.1,1.2C524.5,69.9,526.3,69.5,528.1,69.5z"/>
	<path fill="#254769" d="M544.8,74.6c-5.3,1.3-10.5,2.9-15.9,3.6c-3.5,0.4-6.9,1.1-10.5,1.1c-0.8,0.2-1.7,0.9-1.9-0.6
		c7.6-1.4,15.3-2.9,22.9-4.3c1.4-0.2,2.8-0.2,4.2-0.3C544.3,73.6,544.9,73.5,544.8,74.6z"/>
	<path fill="#293751" d="M516.5,78.6c0.5,0.7,1.3,0.5,1.9,0.6c-1.8,1.1-3.9,0.4-5.8,0.6c-0.7,0.2-0.8-0.1-0.6-0.7
		C513.6,79.4,515,78.4,516.5,78.6z"/>
	<path fill="#2E2738" d="M512,79.2c0.2,0.2,0.4,0.4,0.6,0.7c-1.7,1.2-3.4,0.4-5.2,0.3C508.9,79.8,510.5,79.5,512,79.2z"/>
	<path fill="#2D2F45" d="M544.8,74.6c-0.3-0.5-0.8-0.6-1.2-0.6c0.8-0.8,1.7-0.6,2.8-0.5C546,74.3,545.4,74.4,544.8,74.6z"/>
	<path fill="#862420" d="M565.8,39.5c-0.1,0-0.2,0.1-0.2,0.1c-0.3-0.1-0.3-0.2-0.1-0.3c0.1,0,0.2,0,0.3,0
		C565.8,39.3,565.8,39.4,565.8,39.5z"/>
	<path fill="#72211E" d="M588.3,72.1c0.7-1.8,2.6-2.1,3.8-3.3c0.1,0.8,0.5,1.2,1.2,0.5c1.1-1,2.1-2.1,3.4-2.9c2-1.2,2.1-1.2,3.3,0.8
		c0.5,0.8,1.2,0.8,1.8,1c0.8,0.3,1.4,0.7,1,1.6c-0.4,0.8-1.1,1-1.9,0.6c-0.5-0.3-0.9-0.8-1.5-1.4c-1.7,1.7-3.5,3.2-5.3,4.7
		c-1.1,0.9-2.1,1.1-3.1,0C590.2,73,589.3,72.5,588.3,72.1z"/>
	<path fill="#6B2020" d="M530,88.3c0.8-1.1,2.2-0.7,3.2-0.9c2.3-0.5,4.8-0.7,7.1-1c0,1.3-0.9,2-2,2.2C535.6,89,532.8,89.4,530,88.3z
		"/>
	<path fill="#254E73" d="M472.4,80.4c-0.4-0.8-0.8-1.6-1.2-2.5c1.3,0,2.6,0,3.9,0C475.1,79.7,473.7,80,472.4,80.4z"/>
	<path fill="#3A71A0" d="M484.1,46.9c0.2-0.2,0.4-0.3,0.6-0.5c0.1,0.1,0.1,0.2,0.2,0.3C484.7,46.8,484.4,46.8,484.1,46.9
		C484.1,46.9,484.1,46.9,484.1,46.9z"/>
	<path fill="#1176BC" d="M634.8,180.1c-6.5-2.4-11.7-10.1-11.1-17.7c0.4-5.3,3.3-9.1,8.5-9.9c5.2-0.8,10.3-0.8,14.7,2.9
		c0.4,0.4,1,1.1,1.5,0.1c0.7-1.5,1.7-1.3,2.9-0.9c2.1,0.8,4.3,1.5,6.4,2.2c1.2,0.4,1.7,1,1.4,2.4c-1.2,5.4-1.1,10.9-0.6,16.4
		c0.2,2.5,0.3,5-0.4,7.6c-0.7,2.7-0.1,5.8-0.1,8.7c0,0.5,0,1.1,0,1.6c0,2.8,0,2.8-2.8,2.9c-11.5,0.4-23,0.8-34.5,1.1
		c-25,0.8-49.9,1.6-74.9,2.3c-11,0.3-22,0.6-32.9,0.9c-26.9,0.8-53.8,1.6-80.7,2.4c-8.4,0.2-16.8,0.4-25.2,0.6
		c-2.7,0.1-2.7,0-2.8-2.6c0-3.1,0-6.2,0-9.4c-0.5-0.3-1.1,0.2-1.6,0.5c-8.2,4.6-19.7,1.3-21.4-11.5c-0.9-6.7,0.4-13.1,4.4-18.7
		c3.3-4.6,8.4-6.3,13.4-4.6c2.1,0.7,3.6,2.3,5.1,3.9c1.1-0.8,0.7-1.9,0.7-2.7c0.1-1.5,0.8-2,2.2-2c2.6,0.1,5.1,0.5,7.7,0.9
		c1.5,0.2,2,1.1,2,2.7c-0.3,6.1-0.5,12.3-0.6,18.4c-0.1,4,0,8,0,12c0,1.3,0.2,2.6,0.8,3.8c0.8,1.6,2.1,2.4,3.9,2.4
		c5.9,0.2,11.9,0.2,17.8-0.3c21.4-1.7,42.6-4.7,63.8-7.3c17.7-2.2,35.5-4,53.3-5.6c23.4-2,46.8-3.3,70.3-3c1.9,0,3.9,0.1,5.8,0.1
		c3.2,0.3,6.4,0.2,9.5,0c1.6-0.2,3.3,0.1,4.9-0.9c-1.4-0.1-2.7,1.1-4.1,0.8c-1.9,0.4-3.8,0.4-5.7,0
		C635.6,180.6,635.1,180.4,634.8,180.1z"/>
	<path fill="#1176BC" d="M379.4,192.9c-4.5,0.3-8.5,0.1-12.6-0.5c-1.4-0.2-2.1-1.1-2.2-2.4c-0.3-3.7-2.5-5-5.9-5.2
		c-2.9-0.2-5.8-0.8-8.6-1.3c-1.3-0.2-2.1,0.2-2.4,1.5c-0.1,0.3-0.2,0.6-0.3,0.9c-0.9,4.6-1.2,4.1-5.8,3.7c-1.8-0.2-3.6-0.6-5.4-1
		c-3.4-0.8-3.6-1.1-2.5-4.3c1.9-5.7,3.8-11.4,5.8-17.1c3.5-10.2,6.7-20.4,9.5-30.8c0.7-2.5,0.7-2.5,3.3-2.3c2.1,0.2,4.3,0.3,6.4,0.2
		c2.7-0.1,2.8-0.1,3.6,2.6c1.8,6.2,3.4,12.5,5.1,18.7c3.3,11.8,6.8,23.6,11.2,35C378.9,191.1,379,191.8,379.4,192.9z"/>
	<path fill="#1176BC" d="M578.3,152.3c3.6-2.1,7-3.5,11-3.3c3,0.1,5.8,0.5,8,2.8c0.8,0.9,1.5,0.4,2.2,0c4.5-2.6,9.2-2.8,14-1.4
		c4.1,1.2,5.4,3.1,5.3,7.3c-0.2,5.9-0.1,11.8,0,17.8c0.1,3.2-0.1,3.3-3.2,3.3c-2,0-4.1-0.1-6.1-0.3c-2.3-0.2-2.5-0.5-2.5-2.8
		c0-4.5,0.1-9,0.1-13.6c0-0.4,0-0.9,0-1.3c-0.1-2.9-1.2-4.2-3.7-4.2c-2.6,0-4.7,1.7-4.7,4.2c-0.1,4.8,0,9.7,0,14.5
		c0,2.8,0,2.8-2.9,2.9c-2,0-4.1,0.1-6.1,0.1c-2.8,0-2.8,0-2.8-2.9c0-4.2,0-8.4,0-12.6c0-0.6,0-1.3,0-1.9c0-1.8-0.1-3.5-2.2-4.2
		c-2.1-0.7-3.8,0.2-5.4,1.4c-1,0.8-0.9,1.9-0.9,3c0,5,0,9.9,0,14.9c0,2.8,0,2.8-2.8,3.2c-2.2,0.3-4.5,0.3-6.8,0.4
		c-1.7,0-2.3-0.7-2.2-2.3c0.1-2.6,0-5.2,0-7.8c0.2-5.4,0-10.8-0.6-16.1c-0.3-2.3-0.1-2.5,2.3-2.7c2.4-0.2,4.7-0.5,7-1.1
		c1.6-0.4,2.5-0.1,2.5,1.8C577.9,151.4,578.1,151.7,578.3,152.3z"/>
	<path fill="#1176BC" d="M484.3,158.2c1.2-3.6,1.2-3.7,4.4-3.3c2.2,0.3,5.1-0.2,6.5,1.4c1.3,1.5,0,4.1-0.2,6.1
		c-0.5,5.1-0.4,10.1-0.1,15.1c0.1,2.1,0.2,4.3,0.3,6.4c0.1,1.6-0.6,2.4-2.2,2.5c-1.9,0.2-3.8,0.5-5.7,0.8c-3,0.4-3,0.5-3.9-2.5
		c-0.9-0.1-1.3,0.7-1.8,1.2c-4.2,3.7-8.9,4.3-13.8,2.2c-4.9-2.1-7.2-6.2-7.5-11.5c-0.3-5.6,0.7-10.9,4.1-15.6
		c2.6-3.6,6.1-5.6,10.5-6.3C478.3,154.4,481.4,155.4,484.3,158.2z"/>
	<path fill="#1176BC" d="M443.2,188.4c-1.5,0.9-2.8,1.6-4.1,2.4c-3.1,1.8-6.5,2.1-10,1.6c-3.4-0.5-5.4-2.4-6.2-5.7
		c-0.4-1.7-0.6-3.4-0.7-5.1c-0.2-5.9-0.3-11.8,0.6-17.7c0.1-1,0.4-1.9,0.5-2.8c0.2-1.3,0.9-1.8,2.2-1.9c2.5-0.1,4.9-0.2,7.4-0.2
		c1.9,0,2.2,0.4,1.9,2.4c-0.8,5.5-0.7,10.9-0.5,16.4c0,1,0,2,0.3,2.9c0.6,2.5,2.4,3.5,4.9,2.8c2.6-0.7,4.1-2.6,4.1-5.4
		c0.1-5.6,0.1-11.2,0.2-16.8c0-2.6,0.1-2.7,2.7-2.9c2.6-0.2,5.2-0.2,7.7-0.4c1.2-0.1,1.8,0.5,1.8,1.7c0,0.9,0,1.7,0,2.6
		c-0.4,8.4-0.4,16.8-0.2,25.2c0.1,3.1-0.1,3.2-3.2,3.5c-1.6,0.2-3.2,0.4-4.8,0.5C444.5,191.8,444.5,191.8,443.2,188.4z"/>
	<path fill="#1176BC" d="M548.4,177.3c-1.1,0.3-1.6,1.3-2.3,2c-4.1,3.6-9.7,4-14.3,0.9c-1.1-0.7-2-1.6-2.8-2.6
		c-4.3-5.2-4.9-14-1.3-20c3.1-5.3,10.1-8.3,16.8-7.2c1.4,0.2,2.7,0.7,3.9,1.5c0.9,0.6,1.5,0.6,1.9-0.6c0.3-1,1.1-1.1,2.1-1.1
		c2.5,0,4.9,0.5,7.4,0.8c0.9,0.1,1.3,0.6,1.1,1.6c-1.6,7.6-0.7,15.2-0.4,22.8c0.2,4.2,0.1,4.3-4,4.7c-1.6,0.2-3.2,0.3-4.8,0.6
		c-1.8,0.3-2.6-0.4-2.7-2.2C548.9,178.1,548.9,177.6,548.4,177.3z"/>
	<path fill="#1176BC" d="M512.3,156.1c2.2-1.1,3.9-2.4,5.9-3.1c0.7-0.2,1.4-0.4,2.2-0.6c2.3-0.4,2.7,0,2.6,2.3
		c-0.1,2.3-0.1,4.5-0.2,6.8c-0.1,2.3-0.2,2.4-2.6,2.8c-1.2,0.2-2.4,0.2-3.5,0.4c-2.6,0.5-3.5,1.5-3.6,4.1c0,4.3,0.1,8.6,0.2,12.9
		c0,2.6,0,2.6-2.6,3c-2.3,0.4-4.7,0.7-7.1,0.7c-2.1,0-2.2,0-2.2-2.2c0-4-0.1-8,0-11.9c0.1-4.6-0.2-9.2-1.1-13.8
		c-0.5-2.2-0.4-2.2,1.8-2.8c2.4-0.6,4.8-1.2,7.2-1.8c2.1-0.5,2.1-0.5,2.6,1.8C512.1,155,512.2,155.3,512.3,156.1z"/>
	<path fill="#191918" d="M279.8,210.4l-0.3,0c0,0-0.3,0-0.3,0c0-0.9-0.1-1.9-0.1-2.8c0.1-0.6,0.1-1.1,0.2-1.7c0.6-1.1,0-2.4,0.5-3.5
		c0-0.6,0.1-1.1,0.1-1.7c0.6-1.3,0-2.8,0.5-4.2c-0.2-1-0.1-2,0.2-2.9c0.6-1.8-0.1-3.7,0.5-5.5c0.1-1.4,0.1-2.8,0.2-4.2
		c0.6-0.8,0.1-1.8,0.4-2.6c0.3-0.2,0.5-0.2,0.8,0c0.2,1.5,0.1,3-0.1,4.5c-0.6,2,0.1,4.1-0.4,6.1c-0.1,0.8-0.1,1.5-0.2,2.3
		c-0.5,0.6-0.2,1.2-0.3,1.9c0,1,0.1,2-0.2,2.9c-0.1,0.8-0.1,1.5-0.2,2.3c-0.5,0.9-0.1,2-0.5,3c0.2,0.8,0,1.5-0.2,2.2
		c-0.5,0.9,0,1.9-0.5,2.8C279.9,209.7,279.9,210.1,279.8,210.4z"/>
	<path fill="#191918" d="M707.8,165.8c-0.7,0.5-0.6,1.3-0.6,2c-0.2,0.3-0.4,0.2-0.6,0c-0.2-1.3-0.1-2.6,0.1-3.9
		c0.5-1.7,0.1-3.5,0.2-5.2c0-1.1-0.1-2.1,0.1-3.2c0.5-1.4,0.5-2.8,0.8-4.2c0.1-0.8,0.1-1.5,0.2-2.3c0.1-0.2,0.3-0.3,0.6-0.4
		c0.2,0,0.4,0.2,0.6,0.4c0,0.4,0,0.9,0,1.3c-0.5,1.1,0,2.4-0.4,3.5c-0.1,1-0.1,2-0.2,2.9c-0.3,0.4-0.2,0.9-0.2,1.4
		c0,1.1,0.1,2.3-0.2,3.4C708.1,163,708,164.4,707.8,165.8z"/>
	<path fill="#010101" d="M706.6,167.8c0.2,0,0.4,0,0.6,0c0,4.1,0,8.3,0,12.4c0,1,0.3,2.1-0.6,3C706.2,178.1,706.2,172.9,706.6,167.8
		z"/>
	<path fill="#5499CC" d="M642,181.3c-3.5-0.1-7,0.6-10.4-0.5c1.1-0.1,2.1-0.1,3.2-0.2c0.4-0.2,0.9-0.2,1.2-0.5c2,0.6,4,0.5,6.1,0.1
		C642.3,180.6,642.3,180.9,642,181.3z"/>
	<path fill="#010101" d="M282.4,181.3c-0.2,0-0.4,0-0.6,0c-0.6-4.1-0.6-8.1,0-12.2c0.2,0,0.4,0,0.6,0
		C282.7,173.1,282.6,177.2,282.4,181.3z"/>
	<path fill="#303030" d="M281.9,192c-0.1-2.1-0.5-4.1,0.4-6.1C282.5,187.9,282.5,190,281.9,192z"/>
	<path fill="#2E2F2F" d="M281.8,165.1c0-2,0.1-4,0.1-6.1c0.7,2,0.6,4.1,0.5,6.1C282.2,165.5,282,165.4,281.8,165.1z"/>
	<path fill="#282828" d="M706.6,186.5c1.1,1.8,0.4,3.7,0.5,5.6C706.4,190.3,706.6,188.4,706.6,186.5z"/>
	<path fill="#FFFFFF" d="M707.3,155.5c-0.1,1-0.1,2-0.2,3c0,0.3-0.2,0.4-0.5,0.4c0.2-1.8-0.6-3.6,0.5-5.3
		C707.7,154.1,707.6,154.8,707.3,155.5z"/>
	<path fill="#313131" d="M706.6,158.8c0.2-0.1,0.3-0.3,0.5-0.4c0.1,1.8,0.6,3.7-0.4,5.4C706.6,162.2,706.6,160.5,706.6,158.8z"/>
	<path fill="#020202" d="M709.1,149c-0.2,0-0.4,0-0.6,0c-0.5-1.1-0.4-2.2-0.1-3.3c0-0.4,0.1-0.8,0.1-1.2c0.2,0,0.4,0,0.6,0
		c0,1.1-0.3,2.3,0.1,3.4C709.2,148.2,709.1,148.6,709.1,149z"/>
	<path fill="#282828" d="M707.3,195.6c1,1.3,0.5,2.7,0.5,4.1C707.2,198.4,707.1,197,707.3,195.6z"/>
	<path fill="#2B2C2B" d="M707.3,155.5c0-0.6-0.1-1.3-0.1-1.9c0.2-0.7,0.4-1.5,0.6-2.2C707.8,152.7,708.3,154.2,707.3,155.5z"/>
	<path fill="#303030" d="M281.3,199.1c0-1.2,0-2.3-0.1-3.5c0.1-0.3,0.3-0.3,0.5-0.1C281.8,196.8,281.8,198,281.3,199.1z"/>
	<path fill="#2B2C2B" d="M708.4,145.7c0,1.1,0,2.2,0.1,3.3c-0.2,0-0.4,0-0.6,0C707.8,147.9,707.8,146.7,708.4,145.7z"/>
	<path fill="#1F2020" d="M280.6,204.4c0-1-0.4-2.1,0.5-3C281.2,202.4,281.2,203.4,280.6,204.4z"/>
	<path fill="#302F2F" d="M707.9,202c0.8,0.9,0.6,1.9,0.4,2.9C707.9,204,707.8,203,707.9,202z"/>
	<path fill="#1F2020" d="M279.9,209.3c0-1-0.4-2,0.5-2.8C280.5,207.5,280.4,208.5,279.9,209.3z"/>
	<path fill="#2D2E2D" d="M708.5,206.5c0.9,0.8,0.6,1.9,0.5,2.9C708.5,208.5,708.4,207.6,708.5,206.5z"/>
	<path fill="#1C1C1C" d="M281.8,165.1c0.2,0,0.4,0,0.5,0c0,0.4,0,0.9,0,1.3C281.9,166.1,281.8,165.7,281.8,165.1z"/>
	<path fill="#1F2020" d="M281.7,195.5c-0.2,0-0.3,0-0.5,0.1c0-0.5,0.1-1,0.6-1.3C281.7,194.7,281.7,195.1,281.7,195.5z"/>
	<path fill="#B5E2ED" d="M636,180.1c-0.3,0.5-0.7,0.5-1.2,0.5c0-0.2,0-0.3,0-0.5C635.2,180.1,635.6,180.1,636,180.1z"/>
	<path fill="#1C1C1C" d="M281.8,169.1c0,4.1,0,8.1,0,12.2c-0.1,0.9,0.3,1.9-0.6,2.6c0-5.6,0-11.2,0-16.8
		C281.9,167.6,281.8,168.4,281.8,169.1z"/>
	<path fill="#303030" d="M281,188.1c0.1,1.8,0.6,3.7-0.5,5.5C280.5,191.8,280.5,189.9,281,188.1z"/>
	<path fill="#2E2F2F" d="M280.6,157.4c1,1.5,0.6,3.2,0.4,4.8C280.5,160.7,280.5,159,280.6,157.4z"/>
	<path fill="#1F2020" d="M280.4,196.5c-0.1,1.4,0.6,2.9-0.5,4.2C279.8,199.3,279.9,197.9,280.4,196.5z"/>
	<path fill="#1F2020" d="M279.8,202.4c0,1.2,0.5,2.4-0.5,3.5C279.2,204.7,279.2,203.5,279.8,202.4z"/>
	<path fill="#B03D31" d="M561.1,117.4c0.2,0,0.4-0.1,0.6-0.1c4.8,1.3,9.5,2.6,14.3,3.9c2.4,0.7,4.7,1.4,7.1,2.5
		c-1.3,0.1-2.6,0.1-3.8,0.2c-4.9-1.3-9.8-2.7-14.9-3.3c0,0,0,0,0,0c-1.4-1.1-3.7-0.3-4.6-2.4C559.8,117.5,560.7,117.8,561.1,117.4z"
		/>
	<path fill="#AC3D31" d="M559.8,114.8c-1.3,0.1-2.6-0.5-3.8-0.8c0.1-1.2,0.9-1.2,1.9-1.3c2.7-0.1,5.3,0.7,8,1.4
		c-1,1.4-2.3,1.1-3.5,1.2c0,0,0,0,0,0C561.6,114.7,560.6,115.4,559.8,114.8z"/>
	<path fill="#702221" d="M559.8,118c0.6,0.9,1.5,1.1,2.4,1.3c0.8,0.2,1.6,0.5,2.1,1.3c-1.9,0-3.9-0.7-5.8-0.2
		c-0.7-2.2-3.1-1.9-4.5-3.1c-0.3-0.4-0.8-0.9-0.8-1.2c0.1-0.5,0.8-0.7,1.3-0.6c1.9,0.3,3.6,1.1,5.3,1.8c0.2,0.1,0.3,0.3,0.2,0.4
		C559.9,117.9,559.9,118,559.8,118z"/>
	<path fill="#282828" d="M708.4,194.3c-1.1-1.8-0.5-3.7-0.5-5.5C708.5,190.5,708.5,192.4,708.4,194.3z"/>
	<path fill="#313131" d="M708,161.6c-0.3-1.4-0.1-2.8-0.1-4.2c0.2-0.2,0.3-0.2,0.5,0C708.5,158.8,708.5,160.2,708,161.6z"/>
	<path fill="#2B2C2B" d="M708.6,153.8c-0.1-1.2-0.5-2.4,0.4-3.5C709.2,151.5,709.1,152.7,708.6,153.8z"/>
	<path fill="#302F2F" d="M709.7,205.9c-0.8-0.9-0.6-1.9-0.5-2.9C709.8,203.9,709.8,204.9,709.7,205.9z"/>
	<path fill="#2D2E2D" d="M710.4,210.4c-0.9-0.8-0.6-1.8-0.5-2.8C710.4,208.5,710.5,209.4,710.4,210.4z"/>
	<path fill="#2B2C2B" d="M708.4,157.4c-0.2,0-0.3,0-0.5,0c0.2-0.2,0.3-0.4,0.5-0.7C708.4,157,708.4,157.2,708.4,157.4z"/>
	<path fill="#4486B9" d="M533,121.6c2.5-0.4,4.4-0.7,6.2-1c0.5-0.1,1.1,0.1,1.3,0.6c0.3,0.8-0.3,1.3-0.8,1.5
		C537.6,123.5,535.5,123.6,533,121.6z"/>
	<path fill="#72211E" d="M559.8,114.8c0.9,0,1.9-0.4,2.6,0.6C561.5,115.4,560.5,115.6,559.8,114.8z"/>
	<path fill="#72211E" d="M559.8,118c0-0.2,0-0.4,0-0.6c0.4,0,0.9,0,1.3,0C560.8,117.8,560.3,117.9,559.8,118z"/>
	<path fill="#FFFFFF" d="M404.2,177.5c-0.1,4.9-2.3,7.4-5.9,7c-1.2-0.1-2.3-0.6-3.2-1.4c-3.2-2.7-2.9-9.6,0.4-12.2
		c1.9-1.5,5-1.1,6.7,0.8C403.8,173.6,404.2,175.8,404.2,177.5z"/>
	<path fill="#FDFEFF" d="M642.5,171.1c-3.4,0-6.4-2.1-7.3-5.2c-0.8-2.5,0.4-4.8,2.9-5.6c3-1,7.4,0.9,8.8,3.7
		C648.7,167.6,646.6,171.1,642.5,171.1z"/>
	<path fill="#E2ECF5" d="M642,181.3c0-0.4,0.1-0.7,0.1-1.1c1.7-0.2,3-1.6,4.7-2.2c0.6,0.9,0.7,1.9,0.9,3.3
		C645.7,181.3,643.8,181.3,642,181.3z"/>
	<path fill="#FBFEFF" d="M355.9,156.7c1.6,4.9,2.6,9.4,3.5,13.9c0.3,1.4-0.4,2-1.8,1.8c-0.1,0-0.2,0-0.3,0c-5.5-0.3-5.9-0.9-4.4-6.1
		c0.7-2.6,1.5-5.2,2.3-7.7C355.3,158.1,355.5,157.7,355.9,156.7z"/>
	<path fill="#FFFFFF" d="M476.9,178.9c-3.3,0-5.6-2.3-5.6-5.8c0-4.1,3.1-7.4,7-7.4c3.3,0,5.5,2.3,5.6,5.8
		C483.9,175.7,480.9,178.9,476.9,178.9z"/>
	<path fill="#FFFFFF" d="M543.5,158.7c3.5,0,5.6,2,5.6,5.3c0,3.7-3,6.8-6.7,6.9c-3.1,0.1-5.8-2.5-5.8-5.7
		C536.5,161.5,539.4,158.7,543.5,158.7z"/>
</g>
<g>
</g>
<g>
</g>
<g>
</g>
<g>
</g>
<g>
</g>
<g>
</g>
</svg>
